<svg width="2496" height="279" viewBox="0 0 2496 279" fill="none" xmlns="http://www.w3.org/2000/svg">
<path d="M712.568 57.2051C739.336 57.2051 759.283 65.6024 777.121 81.8749C779.751 83.973 779.751 87.1201 777.648 89.2231L756.658 110.741C754.559 112.839 751.934 112.839 749.831 110.741C739.863 101.817 726.743 97.0934 713.622 97.0934C683.175 97.0934 661.135 122.285 661.135 152.2C661.135 182.115 683.702 206.263 713.622 206.263C726.216 206.263 739.863 201.535 749.309 193.665C751.407 192.089 754.559 192.089 756.131 194.187L777.126 216.232C779.224 218.33 778.697 221.482 776.599 223.58C758.229 241.423 735.662 249.294 711.519 249.294C657.988 249.294 614.953 206.785 614.953 153.249C614.953 99.7185 659.037 57.2051 712.568 57.2051ZM891.014 57.2051C944.545 57.2051 987.059 100.241 987.059 153.776C987.059 207.307 944.545 249.821 891.014 249.821C837.478 249.821 794.97 207.307 794.97 153.776C794.97 100.245 838.005 57.2051 891.014 57.2051ZM891.014 207.307C920.402 207.307 944.545 183.164 944.545 154.303C944.545 124.91 920.402 100.768 891.014 100.768C861.621 100.768 838.005 124.91 838.005 154.303C838.005 183.164 862.148 207.307 891.014 207.307ZM1019.6 65.0803C1019.6 62.4552 1021.7 59.8301 1024.32 59.8301H1089.4C1140.83 59.8301 1183.34 101.817 1183.34 153.249C1183.34 205.214 1141.36 247.196 1089.4 247.196H1024.32C1021.7 247.196 1019.6 244.571 1019.6 241.95V65.0754V65.0803ZM1087.3 207.834C1117.75 207.834 1139.26 184.218 1139.26 153.776C1139.26 123.334 1117.22 99.7185 1087.3 99.7185H1061.59V207.834H1087.3ZM1216.41 65.0803C1216.41 62.4552 1218.51 59.8301 1221.66 59.8301H1332.4C1335.55 59.8301 1337.65 62.4552 1337.65 65.0803V94.4684C1337.65 97.0934 1335.55 99.7185 1332.4 99.7185H1258.4V132.781H1319.28C1321.9 132.781 1324.53 135.406 1324.53 138.031V167.424C1324.53 170.571 1321.9 172.669 1319.28 172.669H1258.4V208.883H1332.4C1335.55 208.883 1337.65 211.508 1337.65 214.133V243.522C1337.65 246.147 1335.55 248.772 1332.4 248.772H1221.66C1220.27 248.769 1218.94 248.215 1217.95 247.231C1216.97 246.247 1216.41 244.913 1216.41 243.522V65.0803ZM1515.04 57.2051C1541.81 57.2051 1561.75 65.6024 1579.6 81.8749C1582.22 83.973 1582.22 87.1201 1580.12 89.2231L1559.13 110.741C1557.03 112.839 1554.41 112.839 1552.3 110.741C1542.33 101.817 1529.21 97.0934 1516.09 97.0934C1485.65 97.0934 1463.61 122.285 1463.61 152.2C1463.61 182.115 1486.17 206.263 1516.09 206.263C1528.69 206.263 1542.33 201.535 1551.78 193.665C1553.88 192.089 1557.03 192.089 1558.6 194.187L1579.6 216.232C1581.7 218.33 1581.17 221.482 1579.07 223.58C1560.7 241.423 1538.13 249.294 1513.99 249.294C1460.46 249.294 1417.42 206.785 1417.42 153.249C1417.42 99.7185 1461.51 57.2051 1515.04 57.2051H1515.04ZM1611.61 65.0803C1611.61 62.4552 1613.71 59.8301 1616.86 59.8301H1648.87C1651.5 59.8301 1654.12 62.4552 1654.12 65.0803V207.834H1717.63C1720.78 207.834 1722.87 210.459 1722.87 213.084V242.472C1722.87 245.098 1720.78 247.723 1717.63 247.723H1617.38C1615.99 247.72 1614.66 247.166 1613.67 246.182C1612.69 245.198 1612.13 243.864 1612.13 242.472V65.0803H1611.61H1611.61ZM1748.59 65.0803C1748.59 62.4552 1751.22 59.8301 1753.84 59.8301H1785.85C1788.48 59.8301 1791.1 62.4552 1791.1 65.0803V241.95C1791.1 244.571 1788.48 247.196 1785.86 247.196H1753.84C1751.22 247.196 1748.59 244.571 1748.59 241.95V65.0754V65.0803ZM1855.13 61.9283C1855.66 59.3081 1857.76 57.732 1859.85 57.732H1864.05C1865.63 57.732 1867.73 58.7811 1868.78 60.3571L1930.71 175.821H1931.23L1993.16 60.3571C1994.21 58.7811 1996.31 57.732 1997.89 57.732H2002.08C2004.18 57.732 2006.81 59.8301 2006.81 61.9283L2037.25 241.423C2037.77 245.098 2035.15 247.196 2032 247.196H2000.51C1997.89 247.196 1995.79 245.098 1995.26 242.999L1983.19 160.598H1982.67L1938.06 246.669C1937.01 248.245 1934.91 249.821 1933.33 249.821H1928.61C1927.03 249.821 1924.94 248.245 1923.89 246.674L1878.75 160.076H1878.23L1866.68 242.472C1866.15 244.571 1864.06 246.669 1861.43 246.669H1829.94C1826.79 246.669 1824.17 244.049 1824.69 240.896L1855.13 61.9283ZM2047.22 240.374L2130.67 60.3571C2131.72 58.7811 2133.3 57.2051 2135.39 57.2051H2138.02C2140.12 57.2051 2141.69 58.7811 2142.74 60.3571L2226.19 240.374C2227.76 244.049 2225.67 247.196 2221.47 247.196H2191.56C2186.83 247.196 2184.72 245.62 2182.1 240.374L2172.66 219.379H2100.23L2090.78 240.896C2089.21 244.049 2086.59 247.196 2081.34 247.196H2051.94C2047.75 247.196 2045.65 243.522 2047.22 240.374ZM2156.91 183.164L2136.44 139.08H2135.92L2115.97 183.164H2156.91H2156.91ZM2262.93 99.1964H2224.62C2223.23 99.1938 2221.89 98.6399 2220.91 97.6558C2219.92 96.6718 2219.37 95.3379 2219.37 93.9463V64.5533C2219.37 61.9282 2221.47 59.3081 2224.62 59.3081H2343.23C2346.38 59.3081 2348.47 61.9282 2348.47 64.5533V94.4684C2348.47 97.0934 2346.38 99.7185 2343.23 99.7185H2304.92V242.472C2304.92 245.098 2302.29 247.723 2299.67 247.723H2267.65C2265.03 247.723 2262.4 245.098 2262.4 242.472V99.1964H2262.93ZM2374.72 65.0803C2374.72 62.4552 2376.82 59.8301 2379.97 59.8301H2490.71C2493.85 59.8301 2495.96 62.4552 2495.96 65.0803V94.4684C2495.96 97.0934 2493.86 99.7185 2490.71 99.7185H2416.71V132.781H2477.59C2480.21 132.781 2482.84 135.406 2482.84 138.031V167.424C2482.84 170.571 2480.21 172.669 2477.59 172.669H2416.71V208.883H2490.71C2493.85 208.883 2495.96 211.508 2495.96 214.133V243.522C2495.96 246.147 2493.86 248.772 2490.71 248.772H2379.97C2378.57 248.768 2377.24 248.213 2376.26 247.229C2375.28 246.245 2374.72 244.912 2374.72 243.522V65.0803Z" fill="#1089FF"/>
<path d="M335.739 0L240.227 94.9953L296.91 151.678L335.749 112.839L444.909 222.526L501.07 165.848L335.739 0ZM222.905 112.312L166.744 56.1609L22.9412 199.964L0.896484 222.004L57.5794 278.687L79.6193 256.12L152.575 183.691L166.744 169.522L222.905 225.683L275.909 278.687L332.592 222.004L279.583 168.995L222.9 112.312H222.905Z" fill="#1089FF"/>
</svg>
