<svg width="2500" height="568" viewBox="0 0 2500 568" fill="none" xmlns="http://www.w3.org/2000/svg">
<path d="M569.382 21H0.00976562V546.314L569.382 21Z" fill="#44C8F5"/>
<path d="M284.654 21H0V283.776L284.654 21Z" fill="black"/>
<path d="M1364.47 135.036L1290.15 432.188H1421.46L1495.74 135.036H1364.47ZM1045.87 134.99L876.983 432.142H963.837L991.869 382.608H1112.44L1121.42 432.142H1249.61L1195.12 134.99H1045.87ZM1064.55 307.245H1034.44L1082.99 221.534L1098.75 307.245H1064.55ZM1964.17 135.036L1890.05 432.188H2021.33L2095.51 135.036H1964.17ZM1905.49 135.036H1770.93L1658.31 232.24L1682.88 135.036H1557.03L1482.89 432.188H1608.36L1633.99 329.599L1701.08 432.188H1852.94L1740.46 276.572L1905.49 135.036ZM767.272 135.173L733.317 135.063H569.006L494.896 432.106H658.037L722.592 432.188C813.47 432.188 902.911 364.56 902.911 260.938C902.893 139.004 767.272 135.173 767.272 135.173V135.173ZM773.937 270.072C773.937 270.072 765.407 366.599 683.16 366.599H636.625L677.611 206.321H719.84C734.953 206.43 778.691 210.334 773.937 270.072V270.072ZM2409.09 134.99L2365.28 309.97L2306.95 134.99H2160.92L2086.74 432.188H2177.54L2221.75 255.681L2280.29 432.188H2425.68L2500 134.99H2409.09Z" fill="#00A1E4"/>
</svg>
