<svg width="512" height="512" viewBox="0 0 512 512" fill="none" xmlns="http://www.w3.org/2000/svg">
<path d="M488 288H457.848C455.357 279.862 452.1 271.979 448.12 264.456L469.424 243.152C470.168 242.409 470.758 241.527 471.16 240.556C471.563 239.584 471.77 238.543 471.77 237.492C471.77 236.441 471.563 235.4 471.16 234.429C470.758 233.457 470.168 232.575 469.424 231.832L448 210.4V186.344L467.736 198.768C468.627 199.33 469.621 199.711 470.661 199.887C471.7 200.064 472.764 200.034 473.791 199.798C474.818 199.563 475.789 199.126 476.647 198.514C477.506 197.902 478.234 197.127 478.792 196.232L493.736 172.232C494.292 171.34 494.667 170.348 494.839 169.311C495.011 168.274 494.978 167.213 494.74 166.19C494.502 165.166 494.065 164.199 493.454 163.344C492.842 162.489 492.068 161.764 491.176 161.208L260.232 17.2081C258.962 16.4166 257.496 15.9971 256 15.9971C254.504 15.9971 253.038 16.4166 251.768 17.2081L20.7999 161.208C19.9077 161.764 19.1337 162.489 18.5221 163.344C17.9106 164.199 17.4734 165.166 17.2357 166.19C16.9979 167.213 16.9643 168.274 17.1366 169.311C17.3089 170.348 17.6838 171.34 18.2399 172.232L33.1839 196.232C33.7414 197.127 34.4702 197.902 35.3284 198.514C36.1866 199.126 37.1573 199.563 38.1847 199.798C39.2121 200.034 40.2759 200.064 41.3151 199.887C42.3542 199.711 43.3482 199.33 44.2399 198.768L63.9999 186.344V488C63.9999 490.122 64.8427 492.157 66.343 493.657C67.8433 495.157 69.8781 496 71.9999 496H360C362.122 496 364.156 495.157 365.657 493.657C367.157 492.157 368 490.122 368 488V457.856C376.138 455.36 384.022 452.097 391.544 448.112L412.848 469.424C413.591 470.168 414.473 470.758 415.444 471.161C416.416 471.563 417.457 471.77 418.508 471.77C419.559 471.77 420.6 471.563 421.571 471.161C422.543 470.758 423.425 470.168 424.168 469.424L469.424 424.168C470.168 423.425 470.758 422.543 471.16 421.572C471.563 420.6 471.77 419.559 471.77 418.508C471.77 417.457 471.563 416.416 471.16 415.445C470.758 414.473 470.168 413.591 469.424 412.848L448.12 391.544C452.1 384.021 455.357 376.138 457.848 368H488C490.122 368 492.156 367.157 493.657 365.657C495.157 364.157 496 362.122 496 360V296C496 293.878 495.157 291.844 493.657 290.343C492.156 288.843 490.122 288 488 288ZM42.5359 180.944L36.0719 170.544L256 33.4241L475.928 170.56L469.464 180.96L260.264 49.2321C258.987 48.4278 257.509 48.001 256 48.001C254.491 48.001 253.013 48.4278 251.736 49.2321L42.5359 180.944ZM79.9999 176.272L256 65.4561L432 176.272V194.4L424.168 186.56C422.637 185.116 420.612 184.312 418.508 184.312C416.403 184.312 414.379 185.116 412.848 186.56L391.544 207.872C384.021 203.893 376.138 200.635 368 198.144V168C368 165.878 367.157 163.844 365.657 162.343C364.156 160.843 362.122 160 360 160H296C293.878 160 291.843 160.843 290.343 162.343C288.843 163.844 288 165.878 288 168V198.144C279.861 200.64 271.978 203.903 264.456 207.888L243.152 186.576C242.409 185.832 241.527 185.242 240.555 184.84C239.584 184.437 238.543 184.23 237.492 184.23C236.441 184.23 235.4 184.437 234.428 184.84C233.457 185.242 232.575 185.832 231.832 186.576L186.576 231.832C185.832 232.575 185.242 233.457 184.839 234.429C184.437 235.4 184.23 236.441 184.23 237.492C184.23 238.543 184.437 239.584 184.839 240.556C185.242 241.527 185.832 242.409 186.576 243.152L199.424 256H104C101.878 256 99.8433 256.843 98.343 258.343C96.8427 259.844 95.9999 261.878 95.9999 264V480H79.9999V176.272ZM168 368H198.152C200.643 376.138 203.9 384.021 207.88 391.544L186.576 412.848C185.832 413.591 185.242 414.473 184.839 415.445C184.437 416.416 184.23 417.457 184.23 418.508C184.23 419.559 184.437 420.6 184.839 421.572C185.242 422.543 185.832 423.425 186.576 424.168L231.832 469.424C233.363 470.868 235.387 471.673 237.492 471.673C239.596 471.673 241.621 470.868 243.152 469.424L264.456 448.112C271.978 452.097 279.861 455.36 288 457.856V480H112V272H204.336C201.937 277.197 199.872 282.541 198.152 288H168C165.878 288 163.843 288.843 162.343 290.343C160.843 291.844 160 293.878 160 296V360C160 362.122 160.843 364.157 162.343 365.657C163.843 367.157 165.878 368 168 368ZM480 352H451.808C450.033 351.999 448.309 352.587 446.905 353.674C445.502 354.76 444.499 356.282 444.056 358C441.256 368.834 436.947 379.221 431.256 388.856C430.355 390.384 429.987 392.167 430.21 393.927C430.433 395.686 431.234 397.322 432.488 398.576L452.424 418.504L418.472 452.456L398.544 432.52C397.289 431.264 395.652 430.462 393.891 430.239C392.13 430.016 390.344 430.385 388.816 431.288C379.187 436.985 368.801 441.294 357.968 444.088C356.25 444.532 354.728 445.534 353.641 446.937C352.555 448.341 351.966 450.065 351.968 451.84V480H304V451.808C304.001 450.034 303.412 448.309 302.326 446.905C301.24 445.502 299.718 444.5 298 444.056C287.166 441.262 276.781 436.953 267.152 431.256C265.624 430.353 263.838 429.984 262.077 430.207C260.316 430.43 258.679 431.233 257.424 432.488L237.496 452.424L203.544 418.472L223.48 398.544C224.734 397.29 225.535 395.654 225.758 393.895C225.981 392.135 225.613 390.352 224.712 388.824C219.02 379.189 214.712 368.802 211.912 357.968C211.468 356.25 210.466 354.728 209.062 353.642C207.659 352.556 205.934 351.967 204.16 351.968H176V304H204.192C205.966 304.001 207.691 303.413 209.094 302.327C210.498 301.24 211.5 299.718 211.944 298C214.744 287.166 219.052 276.779 224.744 267.144C225.645 265.617 226.013 263.833 225.79 262.073C225.567 260.314 224.766 258.679 223.512 257.424L203.576 237.496L237.528 203.544L257.456 223.48C258.711 224.736 260.348 225.538 262.109 225.761C263.87 225.984 265.655 225.615 267.184 224.712C276.813 219.015 287.198 214.706 298.032 211.912C299.75 211.468 301.272 210.466 302.358 209.063C303.444 207.659 304.033 205.935 304.032 204.16V176H352.032V204.192C352.031 205.967 352.619 207.691 353.705 209.095C354.792 210.498 356.314 211.5 358.032 211.944C368.865 214.738 379.251 219.047 388.88 224.744C390.408 225.647 392.194 226.016 393.955 225.793C395.716 225.57 397.353 224.768 398.608 223.512L418.536 203.576L452.488 237.528L432.552 257.456C431.298 258.711 430.497 260.346 430.274 262.105C430.051 263.865 430.419 265.649 431.32 267.176C437.011 276.811 441.32 287.198 444.12 298.032C444.563 299.75 445.566 301.272 446.969 302.358C448.373 303.445 450.097 304.033 451.872 304.032H480V352Z" fill="#1089FF"/>
<path d="M328 240C310.595 240 293.581 245.161 279.11 254.831C264.638 264.5 253.359 278.244 246.699 294.324C240.038 310.404 238.295 328.098 241.691 345.168C245.086 362.238 253.468 377.918 265.775 390.225C278.082 402.532 293.762 410.914 310.832 414.309C327.902 417.705 345.596 415.962 361.676 409.301C377.756 402.641 391.5 391.362 401.169 376.89C410.839 362.419 416 345.405 416 328C415.973 304.669 406.692 282.302 390.195 265.805C373.698 249.308 351.331 240.028 328 240ZM328 400C313.76 400 299.839 395.777 287.999 387.866C276.159 379.954 266.93 368.709 261.481 355.553C256.031 342.397 254.605 327.92 257.383 313.953C260.162 299.987 267.019 287.158 277.088 277.088C287.158 267.019 299.987 260.162 313.954 257.383C327.92 254.605 342.397 256.031 355.553 261.481C368.71 266.93 379.954 276.159 387.866 287.999C395.777 299.839 400 313.76 400 328C399.979 347.089 392.386 365.39 378.888 378.888C365.39 392.386 347.089 399.979 328 400V400Z" fill="#1089FF"/>
</svg>
