<svg width="512" height="512" viewBox="0 0 512 512" fill="none" xmlns="http://www.w3.org/2000/svg">
<g clip-path="url(#clip0)">
<path d="M501.34 117.335C495.434 117.335 490.652 122.108 490.652 127.999V213.334H469.34V191.998C469.34 168.475 450.184 149.335 426.652 149.335C413.934 149.335 402.497 154.944 394.653 163.826C386.841 154.944 375.403 149.335 362.653 149.335C349.935 149.335 338.498 154.944 330.654 163.826C322.842 154.944 311.404 149.335 298.654 149.335C285.935 149.335 274.498 154.944 266.662 163.826C258.842 154.944 247.404 149.335 234.662 149.335C221.936 149.335 210.491 154.944 202.662 163.826C194.842 154.944 183.404 149.335 170.662 149.335C157.936 149.335 146.491 154.944 138.662 163.826C130.842 154.944 119.404 149.335 106.662 149.335C86.827 149.335 70.092 162.951 65.342 181.334H32C26.109 181.334 21.336 186.107 21.336 191.998V213.334H10.664C4.773 213.334 0 218.107 0 223.998C0 229.889 4.773 234.662 10.664 234.662H21.336V255.998C21.336 261.889 26.109 266.662 32 266.662H64V469.34C64 492.856 83.141 511.996 106.664 511.996C119.406 511.996 130.844 506.371 138.664 497.496C146.492 506.371 157.937 511.996 170.664 511.996C183.406 511.996 194.844 506.371 202.664 497.496C210.492 506.371 221.937 511.996 234.664 511.996C247.406 511.996 258.844 506.371 266.664 497.496C274.5 506.371 285.937 511.996 298.656 511.996C311.406 511.996 322.844 506.371 330.656 497.496C338.5 506.371 349.937 511.996 362.655 511.996C375.405 511.996 386.843 506.371 394.655 497.496C402.499 506.371 413.936 511.996 426.654 511.996C450.185 511.996 469.342 492.855 469.342 469.34V234.662H501.342C507.217 234.662 511.998 229.889 511.998 223.998V127.999C511.996 122.108 507.215 117.335 501.34 117.335ZM64 245.334H42.664V202.662H64V245.334ZM127.999 469.34C127.999 481.09 118.436 490.652 106.663 490.652C94.906 490.652 85.335 481.09 85.335 469.34V255.998V191.998C85.335 180.24 94.905 170.662 106.663 170.662C118.436 170.662 127.999 180.24 127.999 191.998V469.34ZM191.999 469.34C191.998 481.09 182.436 490.652 170.663 490.652C158.906 490.652 149.335 481.09 149.335 469.34V191.998C149.335 180.24 158.905 170.662 170.663 170.662C182.436 170.662 191.999 180.24 191.999 191.998V469.34V469.34ZM255.998 469.34C255.998 481.09 246.436 490.652 234.662 490.652C222.905 490.652 213.334 481.09 213.334 469.34V191.998C213.334 180.24 222.904 170.662 234.662 170.662C246.435 170.662 255.998 180.24 255.998 191.998V469.34ZM319.998 469.34C319.998 481.09 310.436 490.652 298.654 490.652C286.904 490.652 277.342 481.09 277.342 469.34V191.998C277.342 180.24 286.904 170.662 298.654 170.662C310.435 170.662 319.998 180.24 319.998 191.998V469.34ZM383.997 469.34C383.997 481.09 374.435 490.652 362.653 490.652C350.904 490.652 341.341 481.09 341.341 469.34V191.998C341.341 180.24 350.903 170.662 362.653 170.662C374.434 170.662 383.997 180.24 383.997 191.998V469.34ZM447.996 469.34C447.996 481.09 438.434 490.652 426.652 490.652C414.903 490.652 405.34 481.09 405.34 469.34V191.998C405.34 180.24 414.902 170.662 426.652 170.662C438.433 170.662 447.996 180.24 447.996 191.998V469.34Z" fill="#1089FF"/>
<path d="M356.871 103.671C355.559 99.1321 356.371 95.8271 359.559 92.6161C368.215 83.9211 371.09 72.6321 367.621 60.8041C365.309 52.8661 360.809 47.2571 360.246 46.5541C360.215 46.5541 360.215 46.5461 360.215 46.5461V46.5311C358.246 44.1721 355.309 42.6641 351.996 42.6641C346.106 42.6641 341.341 47.4451 341.341 53.3361C341.341 55.9221 342.247 58.2971 343.779 60.1411C343.81 60.1641 346.06 63.0791 347.154 66.7971C348.42 71.1641 347.623 74.3831 344.435 77.5631C335.81 86.2411 332.92 97.6081 336.357 109.561C338.685 117.663 343.185 123.397 343.685 124.03V124.022C345.654 126.444 348.638 127.999 351.997 127.999C357.888 127.999 362.653 123.226 362.653 117.335C362.653 114.796 361.778 112.468 360.309 110.64C360.278 110.609 357.965 107.554 356.871 103.671Z" fill="#1089FF"/>
<path d="M268.656 96.609C266.195 86.773 268.164 78.414 274.656 71.062C286.062 58.171 289.687 42.367 285.156 25.336C281.968 13.398 275.844 5.109 275.156 4.203V4.219C273.187 1.664 270.133 0 266.664 0C260.771 0 255.998 4.773 255.998 10.664C255.998 13.078 256.803 15.297 258.154 17.078H258.138C258.185 17.14 262.63 23.187 264.685 31.398C267.138 41.225 265.169 49.585 258.669 56.936C247.279 69.827 243.654 85.632 248.186 102.663C251.358 114.601 257.491 122.89 258.17 123.796L258.186 123.78C260.131 126.35 263.202 127.999 266.663 127.999C272.561 127.999 277.343 123.226 277.343 117.335C277.343 114.921 276.531 112.702 275.187 110.921C275.14 110.859 270.695 104.812 268.656 96.609Z" fill="#1089FF"/>
<path d="M189.64 110.64C189.617 110.609 187.312 107.554 186.195 103.671C184.89 99.1321 185.695 95.8271 188.89 92.6161C197.554 83.9211 200.413 72.6321 196.952 60.8041C194.632 52.8661 190.163 47.2731 189.561 46.5541C189.561 46.5541 189.561 46.5461 189.553 46.5461L189.545 46.5231V46.5311C187.584 44.1721 184.639 42.6641 181.334 42.6641C175.443 42.6641 170.662 47.4451 170.662 53.3361C170.662 55.9221 171.584 58.2971 173.115 60.1411C173.138 60.1641 175.388 63.0791 176.474 66.7971C177.755 71.1641 176.943 74.3831 173.771 77.5631C165.131 86.2411 162.256 97.6081 165.694 109.561C168.022 117.663 172.522 123.397 173.03 124.03V124.022C174.991 126.444 177.975 127.999 181.335 127.999C187.226 127.999 191.999 123.226 191.999 117.335C191.999 114.796 191.108 112.468 189.632 110.64H189.64V110.64Z" fill="#1089FF"/>
</g>
<defs>
<clipPath id="clip0">
<rect width="511.998" height="511.998" fill="white"/>
</clipPath>
</defs>
</svg>
