<svg width="512" height="512" viewBox="0 0 512 512" fill="none" xmlns="http://www.w3.org/2000/svg">
<g clip-path="url(#clip0)">
<path d="M486.398 68.0002H25.6016C11.4609 68.0002 0 79.4612 0 93.6018V383.735C0 397.871 11.4609 409.336 25.6016 409.336H42.668V434.934C42.668 439.649 46.4883 443.469 51.1992 443.469H119.465C124.18 443.469 128 439.649 128 434.934V409.336H384V434.934C384 439.649 387.82 443.469 392.535 443.469H460.801C465.512 443.469 469.332 439.649 469.332 434.934V409.336H486.402C500.539 409.336 512 397.871 512 383.735V93.6018C512 79.4612 500.539 68.0002 486.398 68.0002V68.0002ZM110.934 426.403H59.7344V409.332H110.934V426.403ZM452.266 426.403H401.066V409.332H452.266V426.403ZM494.934 383.735C494.934 388.446 491.113 392.266 486.398 392.266H25.6016C20.8867 392.266 17.0664 388.446 17.0664 383.735V93.6018C17.0664 88.887 20.8867 85.0667 25.6016 85.0667H486.398C491.113 85.0667 494.934 88.887 494.934 93.6018V383.735Z" fill="white"/>
<path d="M452.265 110.668H349.867C335.726 110.668 324.265 122.129 324.265 136.266V341.067C324.265 355.207 335.726 366.668 349.867 366.668H452.265C466.406 366.668 477.867 355.207 477.867 341.067V136.266C477.867 122.129 466.406 110.668 452.265 110.668V110.668ZM341.332 204.535H460.8V272.801H341.332V204.535ZM349.867 127.735H452.265C456.98 127.735 460.8 131.555 460.8 136.266V187.469H341.332V136.266C341.332 131.555 345.152 127.735 349.867 127.735ZM452.265 349.602H349.867C345.152 349.602 341.332 345.781 341.332 341.067V289.867H460.8V341.067C460.8 345.781 456.98 349.602 452.265 349.602V349.602Z" fill="white"/>
<path d="M170.668 102.133C95.2617 102.133 34.1328 163.262 34.1328 238.668C34.1328 314.074 95.2617 375.199 170.668 375.199C246.07 375.199 307.199 314.074 307.199 238.668C307.109 163.301 246.035 102.223 170.668 102.133V102.133ZM170.668 358.133C104.688 358.133 51.1992 304.649 51.1992 238.668C51.1992 172.688 104.688 119.199 170.668 119.199C236.645 119.199 290.133 172.688 290.133 238.668C290.063 304.617 236.617 358.063 170.668 358.133Z" fill="white"/>
<path d="M196.266 238.668C196.238 237.641 196.149 236.617 195.992 235.606C207.652 222.328 213.848 205.129 213.332 187.469C213.332 153.973 194.559 127.735 170.668 127.735C165.953 127.735 162.133 131.555 162.133 136.266V214.703C159.668 215.543 157.344 216.758 155.246 218.305C137.945 214.836 119.973 218.067 104.961 227.344C89.1681 235.77 77.2462 249.977 71.6798 266.989C68.9376 276.067 69.9962 285.867 74.6173 294.149C76.9766 298.215 82.1837 299.606 86.254 297.258L154.149 258.055C156.082 259.766 158.274 261.164 160.641 262.203C166.324 278.914 178.145 292.848 193.707 301.184C205.086 307.938 218.024 311.621 231.254 311.875C235.801 311.895 240.328 311.321 244.727 310.168C253.938 308.008 261.879 302.215 266.746 294.106C269.094 290.028 267.695 284.817 263.621 282.457L195.688 243.207C196.012 241.715 196.207 240.196 196.266 238.668V238.668ZM169.25 247.055C164.625 246.301 161.492 241.942 162.246 237.317C162.484 235.856 163.102 234.485 164.035 233.332C166.957 229.664 172.297 229.055 175.965 231.977C177.242 232.989 178.199 234.352 178.723 235.895C179.066 236.778 179.227 237.719 179.199 238.668C179.203 240.164 178.813 241.637 178.066 242.934C177.652 243.617 177.156 244.25 176.59 244.813C176.238 245.125 175.863 245.41 175.473 245.664C175.254 245.832 175.031 245.989 174.797 246.133C174.309 246.399 173.797 246.614 173.27 246.774C173.074 246.84 172.887 246.91 172.68 246.961C172.195 247.067 171.707 247.129 171.211 247.156C170.645 247.219 170.074 247.219 169.504 247.156C169.43 247.074 169.371 247.082 169.25 247.055ZM179.199 147.36C189.031 153.332 196.266 169.324 196.266 187.469C196.481 198.723 193.402 209.801 187.41 219.332C187.172 219.125 186.891 218.981 186.641 218.778C185.859 218.149 185.039 217.563 184.191 217.028C183.758 216.754 183.34 216.496 182.879 216.25C181.977 215.766 181.051 215.332 180.098 214.961C179.789 214.832 179.508 214.653 179.199 214.543V147.36ZM87.3399 276.93C87.4102 275.059 87.6954 273.199 88.1915 271.395C92.6407 258.801 101.676 248.352 113.492 242.133C122.234 236.918 132.168 234.035 142.344 233.762C143.418 233.762 144.488 233.762 145.52 233.879V234.094C145.231 235.602 145.078 237.133 145.066 238.668C145.07 240.239 145.215 241.809 145.5 243.352L87.3399 276.93ZM240.281 293.699C227.125 296.215 213.5 293.602 202.215 286.387C192.359 280.985 184.305 272.813 179.055 262.875C180.586 262.344 182.063 261.668 183.465 260.856H183.52C184.875 260.071 186.156 259.156 187.34 258.133L245.469 291.696C243.824 292.567 242.086 293.239 240.281 293.699Z" fill="white"/>
</g>
<defs>
<clipPath id="clip0">
<rect width="512" height="512" fill="white"/>
</clipPath>
</defs>
</svg>
