<svg width="2500" height="283" viewBox="0 0 2500 283" fill="none" xmlns="http://www.w3.org/2000/svg">
<path d="M689.92 228.739C696.62 228.739 702.381 228.003 707.201 226.533C712.104 225.062 716.107 223.06 719.212 220.527C722.398 217.913 724.727 214.89 726.198 211.458C727.75 207.945 728.526 204.145 728.526 200.06C728.526 195.975 727.832 192.421 726.443 189.397C725.054 186.293 722.848 183.515 719.825 181.063C716.883 178.612 713.043 176.284 708.304 174.078C703.565 171.872 697.887 169.584 691.269 167.214C682.608 164.11 675.295 160.841 669.331 157.41C663.448 153.896 658.668 150.097 654.991 146.012C651.314 141.845 648.659 137.31 647.025 132.408C645.472 127.424 644.696 121.909 644.696 115.862C644.696 108.427 646.085 101.891 648.863 96.2529C651.641 90.5335 655.441 85.7537 660.261 81.9136C665.164 78.0734 670.883 75.1729 677.419 73.2119C684.038 71.251 691.146 70.2705 698.745 70.2705C706.67 70.2705 714.882 71.6187 723.379 74.3149C731.876 76.9295 740.578 81.1782 749.484 87.061L740.047 104.955C732.612 100.216 725.462 96.8249 718.599 94.7822C711.818 92.6579 705.363 91.5957 699.235 91.5957C689.267 91.5957 681.586 93.7201 676.194 97.9688C670.801 102.136 668.105 107.937 668.105 115.372C668.105 119.539 668.677 123.093 669.821 126.035C670.965 128.976 672.844 131.632 675.458 134.001C678.073 136.289 681.464 138.413 685.631 140.374C689.88 142.253 695.109 144.255 701.318 146.379C712.185 150.056 720.928 153.774 727.546 157.532C734.164 161.291 739.271 165.213 742.866 169.298C746.461 173.383 748.83 177.754 749.974 182.412C751.2 187.069 751.812 192.216 751.812 197.854C751.812 205.943 750.424 213.215 747.646 219.669C744.949 226.124 741.027 231.639 735.88 236.215C730.732 240.709 724.4 244.181 716.883 246.632C709.448 249.002 700.951 250.187 691.391 250.187C683.956 250.187 675.99 249.043 667.492 246.755C658.995 244.385 650.048 240.668 640.652 235.602L648.496 216.483C656.421 220.568 663.775 223.632 670.556 225.675C677.419 227.717 683.874 228.739 689.92 228.739ZM766.642 239.156L832.088 73.9473H855.742L920.331 239.769V247H897.167L878.538 198.467H807.086L788.212 247H766.642V239.156ZM831.353 133.266L815.053 177.387H870.817L854.884 133.266L843.241 100.175L831.353 133.266ZM819.955 53.48L840.545 15.6094H867.385L836.01 53.48H819.955ZM946.558 247V73.9473H999.626C1007.14 73.9473 1014.5 74.6826 1021.69 76.1533C1028.88 77.624 1035.25 80.116 1040.81 83.6294C1046.44 87.1427 1050.98 91.8 1054.41 97.6011C1057.84 103.402 1059.56 110.592 1059.56 119.171C1059.56 124.727 1058.82 129.752 1057.35 134.246C1055.88 138.658 1053.76 142.662 1050.98 146.257C1048.28 149.77 1044.97 152.834 1041.05 155.449C1037.13 158.063 1032.72 160.31 1027.81 162.189C1034.35 163.742 1039.5 165.744 1043.26 168.195C1047.1 170.564 1050.08 173.506 1052.2 177.019C1054.41 180.451 1055.96 184.454 1056.86 189.03C1057.84 193.524 1058.74 198.671 1059.56 204.472C1060.37 210.192 1061.35 216.605 1062.5 223.714C1063.64 230.741 1065.52 238.503 1068.14 247H1042.4C1040.68 238.094 1039.33 230.087 1038.35 222.979C1037.46 215.788 1036.52 209.456 1035.54 203.982C1034.56 198.426 1033.37 193.687 1031.98 189.765C1030.67 185.762 1028.75 182.493 1026.22 179.96C1023.69 177.428 1020.42 175.589 1016.42 174.445C1012.41 173.22 1007.27 172.607 1000.97 172.607H970.58V247H946.558ZM970.457 154.468H998.891C1003.87 154.468 1008.53 153.896 1012.86 152.752C1017.19 151.609 1020.95 149.77 1024.14 147.237C1027.41 144.704 1029.94 141.395 1031.74 137.31C1033.62 133.143 1034.56 128.077 1034.56 122.113C1034.56 115.903 1033.37 111.001 1031 107.406C1028.63 103.811 1025.57 101.114 1021.81 99.3169C1018.05 97.4377 1013.84 96.2938 1009.19 95.8853C1004.61 95.395 1000.12 95.1499 995.704 95.1499H970.457V154.468ZM1232.98 247H1201.6L1134.81 160.474L1127.94 169.053V247H1103.92V73.9473H1127.94V152.752L1141.06 137.188L1196.7 73.9473H1227.58L1157.24 150.792L1232.98 247ZM1316.81 250.187C1307.33 250.187 1298.83 249.083 1291.32 246.877C1283.88 244.59 1277.3 241.444 1271.58 237.44C1265.86 233.437 1260.96 228.657 1256.88 223.101C1252.87 217.545 1249.56 211.458 1246.95 204.84C1244.42 198.222 1242.54 191.195 1241.31 183.76C1240.17 176.325 1239.6 168.685 1239.6 160.841C1239.6 152.834 1240.21 145.031 1241.43 137.433C1242.74 129.834 1244.7 122.685 1247.32 115.985C1250.01 109.285 1253.4 103.157 1257.49 97.6011C1261.66 91.9634 1266.6 87.1427 1272.32 83.1392C1278.04 79.0539 1284.57 75.9082 1291.93 73.7021C1299.36 71.4144 1307.66 70.2705 1316.81 70.2705C1325.96 70.2705 1334.21 71.4144 1341.56 73.7021C1349 75.9082 1355.58 79.0539 1361.3 83.1392C1367.02 87.1427 1371.92 91.9634 1376 97.6011C1380.17 103.157 1383.56 109.285 1386.18 115.985C1388.79 122.685 1390.71 129.834 1391.94 137.433C1393.24 145.031 1393.9 152.834 1393.9 160.841C1393.9 168.685 1393.28 176.325 1392.06 183.76C1390.91 191.195 1389.08 198.222 1386.54 204.84C1384.01 211.458 1380.7 217.545 1376.62 223.101C1372.61 228.657 1367.75 233.437 1362.03 237.44C1356.31 241.444 1349.69 244.59 1342.18 246.877C1334.74 249.083 1326.29 250.187 1316.81 250.187ZM1316.81 228.739C1326.94 228.739 1335.31 226.9 1341.93 223.224C1348.63 219.547 1353.94 214.563 1357.86 208.271C1361.79 201.98 1364.52 194.708 1366.08 186.456C1367.71 178.204 1368.53 169.461 1368.53 160.229C1368.53 150.669 1367.67 141.722 1365.95 133.388C1364.32 125.054 1361.5 117.782 1357.5 111.573C1353.49 105.363 1348.18 100.502 1341.56 96.9883C1334.95 93.3932 1326.69 91.5957 1316.81 91.5957C1306.92 91.5957 1298.67 93.3932 1292.05 96.9883C1285.43 100.502 1280.12 105.363 1276.12 111.573C1272.11 117.782 1269.25 125.054 1267.54 133.388C1265.82 141.722 1264.97 150.669 1264.97 160.229C1264.97 169.461 1265.74 178.204 1267.29 186.456C1268.93 194.708 1271.71 201.98 1275.63 208.271C1279.55 214.563 1284.82 219.547 1291.44 223.224C1298.14 226.9 1306.59 228.739 1316.81 228.739ZM1307.62 27.4976V48.5776H1280.41V27.4976H1307.62ZM1353.94 27.4976V48.5776H1326.73V27.4976H1353.94ZM1538.64 247H1416.94V225.062L1507.88 95.8853H1419.51V73.9473H1536.43V95.6401L1445.25 224.939H1538.64V247ZM1573.32 247V73.9473H1597.34V247H1573.32ZM1837.68 247H1806.31L1739.51 160.474L1732.65 169.053V247H1708.63V73.9473H1732.65V152.752L1745.76 137.188L1801.4 73.9473H1832.29L1761.94 150.792L1837.68 247ZM1859.5 247V73.9473H1883.64V224.939H1957.67V247H1859.5ZM1985.36 247V73.9473H2009.39V247H1985.36ZM1974.21 53.48L1994.8 15.6094H2021.64L1990.27 53.48H1974.21ZM2204.87 247V156.919C2204.87 155.776 2204.87 153.324 2204.87 149.566C2204.95 145.726 2204.99 141.354 2204.99 136.452C2205.07 131.55 2205.11 126.443 2205.11 121.132C2205.19 115.74 2205.28 110.878 2205.36 106.548L2202.42 106.058L2151.8 247H2130.47L2081.57 107.406L2078.51 107.896C2078.59 112.226 2078.67 117.047 2078.75 122.358C2078.84 127.587 2078.92 132.653 2079 137.555C2079.08 142.376 2079.12 146.665 2079.12 150.424C2079.2 154.101 2079.24 156.552 2079.24 157.777V247H2056.08V73.9473H2094.69L2141.75 216.115L2191.63 73.9473H2228.77V247H2204.87ZM2254.5 239.156L2319.95 73.9473H2343.6L2408.19 239.769V247H2385.03L2366.4 198.467H2294.95L2276.07 247H2254.5V239.156ZM2319.21 133.266L2302.91 177.387H2358.68L2342.75 133.266L2331.1 100.175L2319.21 133.266Z" fill="white"/>
<path d="M707.201 226.533L705.764 221.744L705.753 221.747L705.742 221.75L707.201 226.533ZM719.212 220.527L722.373 224.402L722.378 224.397L722.383 224.393L719.212 220.527ZM726.198 211.458L721.624 209.437L721.613 209.463L721.602 209.488L726.198 211.458ZM726.443 189.397L721.879 191.439L721.889 191.462L721.899 191.485L726.443 189.397ZM719.825 181.063L716.624 184.905L716.65 184.926L716.676 184.947L719.825 181.063ZM691.269 167.214L689.581 171.921L689.583 171.922L691.269 167.214ZM669.331 157.41L666.767 161.702L666.802 161.723L666.837 161.744L669.331 157.41ZM654.991 146.012L651.242 149.32L651.258 149.338L651.275 149.357L654.991 146.012ZM647.025 132.408L642.251 133.895L642.266 133.942L642.281 133.989L647.025 132.408ZM648.863 96.2529L653.348 98.463L653.355 98.4502L653.361 98.4374L648.863 96.2529ZM660.261 81.9136L657.178 77.9774L657.162 77.99L657.146 78.0028L660.261 81.9136ZM677.419 73.2119L675.999 68.4179L675.991 68.4203L675.983 68.4228L677.419 73.2119ZM723.379 74.3149L721.867 79.0808L721.888 79.0874L721.908 79.0938L723.379 74.3149ZM749.484 87.061L753.907 89.3935L756.02 85.3861L752.24 82.889L749.484 87.061ZM740.047 104.955L737.36 109.171L741.937 112.089L744.469 107.287L740.047 104.955ZM718.599 94.7822L717.104 99.5536L717.139 99.5643L717.173 99.5745L718.599 94.7822ZM676.194 97.9688L679.251 101.925L679.27 101.911L679.288 101.896L676.194 97.9688ZM675.458 134.001L672.101 137.706L672.133 137.735L672.166 137.764L675.458 134.001ZM685.631 140.374L683.502 144.898L683.555 144.923L683.608 144.947L685.631 140.374ZM701.318 146.379L699.7 151.11L699.708 151.113L699.716 151.116L701.318 146.379ZM749.974 182.412L745.118 183.604L745.128 183.644L745.139 183.684L749.974 182.412ZM747.646 219.669L743.053 217.693L743.042 217.717L743.032 217.742L747.646 219.669ZM735.88 236.215L739.168 239.981L739.185 239.967L739.202 239.952L735.88 236.215ZM716.883 246.632L718.401 251.396L718.417 251.391L718.433 251.386L716.883 246.632ZM667.492 246.755L666.149 251.571L666.171 251.577L666.192 251.583L667.492 246.755ZM640.652 235.602L636.026 233.704L634.318 237.868L638.279 240.003L640.652 235.602ZM648.496 216.483L650.786 212.039L645.939 209.54L643.87 214.585L648.496 216.483ZM670.556 225.675L669.114 230.462L669.122 230.465L669.13 230.467L670.556 225.675ZM689.92 233.739C696.963 233.739 703.24 232.969 708.66 231.315L705.742 221.75C701.521 223.038 696.278 223.739 689.92 223.739V233.739ZM708.638 231.322C714.002 229.713 718.639 227.448 722.373 224.402L716.051 216.653C713.575 218.673 710.205 220.411 705.764 221.744L708.638 231.322ZM722.383 224.393C726.124 221.323 728.975 217.67 730.793 213.428L721.602 209.488C720.479 212.109 718.673 214.502 716.04 216.662L722.383 224.393ZM730.771 213.479C732.623 209.289 733.526 204.796 733.526 200.06H723.526C723.526 203.494 722.878 206.6 721.624 209.437L730.771 213.479ZM733.526 200.06C733.526 195.415 732.737 191.12 730.986 187.31L721.899 191.485C722.927 193.722 723.526 196.535 723.526 200.06H733.526ZM731.007 187.356C729.254 183.437 726.518 180.054 722.974 177.18L716.676 184.947C719.177 186.976 720.854 189.148 721.879 191.439L731.007 187.356ZM723.026 177.222C719.656 174.415 715.413 171.872 710.414 169.545L706.194 178.611C710.673 180.696 714.11 182.81 716.624 184.905L723.026 177.222ZM710.414 169.545C705.499 167.256 699.671 164.912 692.954 162.507L689.583 171.922C696.103 174.256 701.632 176.487 706.194 178.611L710.414 169.545ZM692.956 162.508C684.487 159.472 677.462 156.32 671.824 153.076L666.837 161.744C673.128 165.363 680.728 168.747 689.581 171.921L692.956 162.508ZM671.894 153.117C666.34 149.8 661.979 146.302 658.708 142.667L651.275 149.357C655.357 153.892 660.556 157.993 666.767 161.702L671.894 153.117ZM658.74 142.704C655.474 139.001 653.175 135.046 651.768 130.827L642.281 133.989C644.143 139.575 647.155 144.688 651.242 149.32L658.74 142.704ZM651.799 130.921C650.418 126.487 649.696 121.482 649.696 115.862H639.696C639.696 122.335 640.527 128.36 642.251 133.895L651.799 130.921ZM649.696 115.862C649.696 109.054 650.966 103.298 653.348 98.463L644.378 94.0429C641.205 100.483 639.696 107.8 639.696 115.862H649.696ZM653.361 98.4374C655.823 93.3675 659.159 89.1846 663.377 85.8244L657.146 78.0028C651.723 82.3229 647.459 87.6995 644.366 94.0684L653.361 98.4374ZM663.345 85.8497C667.711 82.4293 672.86 79.8 678.856 78.001L675.983 68.4228C668.906 70.5457 662.616 73.7175 657.178 77.9774L663.345 85.8497ZM678.84 78.0059C684.953 76.1946 691.579 75.2705 698.745 75.2705V65.2705C690.713 65.2705 683.122 66.3074 675.999 68.4179L678.84 78.0059ZM698.745 75.2705C706.097 75.2705 713.798 76.5206 721.867 79.0808L724.891 69.5491C715.965 66.7167 707.243 65.2705 698.745 65.2705V75.2705ZM721.908 79.0938C729.87 81.5436 738.143 85.5619 746.728 91.233L752.24 82.889C743.013 76.7945 733.882 72.3154 724.849 69.536L721.908 79.0938ZM745.061 84.7286L735.624 102.622L744.469 107.287L753.907 89.3935L745.061 84.7286ZM742.734 100.738C734.994 95.8049 727.423 92.1915 720.025 89.99L717.173 99.5745C723.502 101.458 730.229 104.626 737.36 109.171L742.734 100.738ZM720.094 90.0109C712.904 87.7586 705.943 86.5957 699.235 86.5957V96.5957C704.782 96.5957 710.731 97.5571 717.104 99.5536L720.094 90.0109ZM699.235 86.5957C688.635 86.5957 679.695 88.8451 673.099 94.0413L679.288 101.896C683.478 98.595 689.898 96.5957 699.235 96.5957V86.5957ZM673.137 94.0123C666.396 99.2211 663.105 106.551 663.105 115.372H673.105C673.105 109.323 675.207 105.05 679.251 101.925L673.137 94.0123ZM663.105 115.372C663.105 119.971 663.733 124.175 665.161 127.847L674.481 124.222C673.621 122.011 673.105 119.107 673.105 115.372H663.105ZM665.161 127.847C666.618 131.593 668.98 134.877 672.101 137.706L678.816 130.296C676.708 128.386 675.312 126.359 674.481 124.222L665.161 127.847ZM672.166 137.764C675.224 140.439 679.042 142.799 683.502 144.898L687.76 135.85C683.886 134.027 680.922 132.138 678.751 130.238L672.166 137.764ZM683.608 144.947C688.031 146.903 693.404 148.956 699.7 151.11L702.937 141.649C696.813 139.554 691.728 137.604 687.653 135.801L683.608 144.947ZM699.716 151.116C710.417 154.736 718.836 158.336 725.077 161.88L730.015 153.184C723.02 149.212 713.953 145.376 702.921 141.643L699.716 151.116ZM725.077 161.88C731.389 165.465 735.998 169.063 739.112 172.601L746.619 165.995C742.543 161.362 736.939 157.116 730.015 153.184L725.077 161.88ZM739.112 172.601C742.248 176.164 744.191 179.829 745.118 183.604L754.83 181.219C753.469 175.68 750.674 170.602 746.619 165.995L739.112 172.601ZM745.139 183.684C746.238 187.862 746.812 192.575 746.812 197.854H756.812C756.812 191.858 756.161 186.275 754.809 181.139L745.139 183.684ZM746.812 197.854C746.812 205.365 745.525 211.95 743.053 217.693L752.238 221.646C755.322 214.48 756.812 206.521 756.812 197.854H746.812ZM743.032 217.742C740.62 223.516 737.135 228.409 732.558 232.478L739.202 239.952C744.919 234.87 749.278 228.733 752.259 221.597L743.032 217.742ZM732.592 232.448C728.025 236.435 722.31 239.604 715.333 241.879L718.433 251.386C726.491 248.759 733.44 244.982 739.168 239.981L732.592 232.448ZM715.365 241.868C708.517 244.051 700.547 245.187 691.391 245.187V255.187C701.354 255.187 710.379 253.953 718.401 251.396L715.365 241.868ZM691.391 245.187C684.466 245.187 676.941 244.121 668.792 241.927L666.192 251.583C675.038 253.965 683.445 255.187 691.391 255.187V245.187ZM668.835 241.939C660.761 239.687 652.16 236.126 643.025 231.201L638.279 240.003C647.936 245.21 657.229 249.084 666.149 251.571L668.835 241.939ZM645.278 237.5L653.121 218.381L643.87 214.585L636.026 233.704L645.278 237.5ZM646.205 220.927C654.336 225.118 661.976 228.312 669.114 230.462L671.998 220.887C665.573 218.952 658.506 216.018 650.786 212.039L646.205 220.927ZM669.13 230.467C676.373 232.623 683.312 233.739 689.92 233.739V223.739C684.436 223.739 678.466 222.812 671.982 220.883L669.13 230.467ZM766.642 239.156L761.994 237.315L761.642 238.202V239.156H766.642ZM832.088 73.9473V68.9473H828.691L827.44 72.1058L832.088 73.9473ZM855.742 73.9473L860.401 72.1325L859.161 68.9473H855.742V73.9473ZM920.331 239.769H925.331V238.83L924.99 237.954L920.331 239.769ZM920.331 247V252H925.331V247H920.331ZM897.167 247L892.499 248.792L893.731 252H897.167V247ZM878.538 198.467L883.206 196.675L881.975 193.467H878.538V198.467ZM807.086 198.467V193.467H803.666L802.426 196.655L807.086 198.467ZM788.212 247V252H791.633L792.872 248.812L788.212 247ZM766.642 247H761.642V252H766.642V247ZM831.353 133.266L836.043 134.998L836.051 134.977L836.059 134.956L831.353 133.266ZM815.053 177.387L810.363 175.654L807.875 182.387H815.053V177.387ZM870.817 177.387V182.387H877.938L875.52 175.688L870.817 177.387ZM854.884 133.266L850.168 134.925L850.175 134.945L850.182 134.964L854.884 133.266ZM843.241 100.175L847.958 98.5153L843.29 85.2498L838.536 98.4843L843.241 100.175ZM819.955 53.48L815.562 51.0917L811.545 58.48H819.955V53.48ZM840.545 15.6094V10.6094H837.572L836.152 13.2211L840.545 15.6094ZM867.385 15.6094L871.236 18.7993L878.021 10.6094H867.385V15.6094ZM836.01 53.48V58.48H838.361L839.861 56.6699L836.01 53.48ZM771.291 240.998L836.737 75.7888L827.44 72.1058L761.994 237.315L771.291 240.998ZM832.088 78.9473H855.742V68.9473H832.088V78.9473ZM851.083 75.762L915.672 241.584L924.99 237.954L860.401 72.1325L851.083 75.762ZM915.331 239.769V247H925.331V239.769H915.331ZM920.331 242H897.167V252H920.331V242ZM901.835 245.208L883.206 196.675L873.87 200.259L892.499 248.792L901.835 245.208ZM878.538 193.467H807.086V203.467H878.538V193.467ZM802.426 196.655L783.552 245.188L792.872 248.812L811.746 200.279L802.426 196.655ZM788.212 242H766.642V252H788.212V242ZM771.642 247V239.156H761.642V247H771.642ZM826.663 131.533L810.363 175.654L819.743 179.119L836.043 134.998L826.663 131.533ZM815.053 182.387H870.817V172.387H815.053V182.387ZM875.52 175.688L859.587 131.567L850.182 134.964L866.114 179.085L875.52 175.688ZM859.601 131.606L847.958 98.5153L838.525 101.834L850.168 134.925L859.601 131.606ZM838.536 98.4843L826.647 131.575L836.059 134.956L847.947 101.865L838.536 98.4843ZM824.348 55.8683L844.938 17.9977L836.152 13.2211L815.562 51.0917L824.348 55.8683ZM840.545 20.6094H867.385V10.6094H840.545V20.6094ZM863.535 12.4195L832.16 50.2901L839.861 56.6699L871.236 18.7993L863.535 12.4195ZM836.01 48.48H819.955V58.48H836.01V48.48ZM946.558 247H941.558V252H946.558V247ZM946.558 73.9473V68.9473H941.558V73.9473H946.558ZM1040.81 83.6294L1038.13 87.8554L1038.15 87.8641L1038.16 87.8728L1040.81 83.6294ZM1057.35 134.246L1062.09 135.827L1062.1 135.814L1062.1 135.801L1057.35 134.246ZM1050.98 146.257L1047.02 143.2L1047.02 143.206L1047.01 143.213L1050.98 146.257ZM1027.81 162.189L1026.02 157.521L1010.91 163.314L1026.66 167.054L1027.81 162.189ZM1043.26 168.195L1040.53 172.383L1040.58 172.417L1040.63 172.45L1043.26 168.195ZM1052.2 177.019L1047.92 179.606L1047.96 179.665L1048 179.723L1052.2 177.019ZM1056.86 189.03L1051.95 189.994L1051.96 190.045L1051.98 190.096L1056.86 189.03ZM1059.56 204.472L1054.61 205.17L1054.61 205.179L1059.56 204.472ZM1062.5 223.714L1057.56 224.508L1057.56 224.517L1062.5 223.714ZM1068.14 247V252H1074.91L1072.92 245.53L1068.14 247ZM1042.4 247L1037.49 247.946L1038.27 252H1042.4V247ZM1038.35 222.979L1033.39 223.599L1033.4 223.63L1033.4 223.662L1038.35 222.979ZM1035.54 203.982L1030.61 204.851L1030.61 204.863L1035.54 203.982ZM1031.98 189.765L1027.23 191.317L1027.25 191.376L1027.27 191.434L1031.98 189.765ZM1016.42 174.445L1014.95 179.226L1015 179.24L1015.04 179.253L1016.42 174.445ZM970.58 172.607V167.607H965.58V172.607H970.58ZM970.58 247V252H975.58V247H970.58ZM970.457 154.468H965.457V159.468H970.457V154.468ZM1024.14 147.237L1021.07 143.285L1021.05 143.304L1021.03 143.323L1024.14 147.237ZM1031.74 137.31L1027.18 135.255L1027.17 135.275L1027.16 135.296L1031.74 137.31ZM1021.81 99.3169L1019.57 103.789L1019.61 103.809L1019.65 103.828L1021.81 99.3169ZM1009.19 95.8853L1008.65 100.857L1008.7 100.862L1008.75 100.866L1009.19 95.8853ZM970.457 95.1499V90.1499H965.457V95.1499H970.457ZM951.558 247V73.9473H941.558V247H951.558ZM946.558 78.9473H999.626V68.9473H946.558V78.9473ZM999.626 78.9473C1006.81 78.9473 1013.83 79.6503 1020.68 81.0519L1022.69 71.2547C1015.16 69.715 1007.47 68.9473 999.626 68.9473V78.9473ZM1020.68 81.0519C1027.35 82.4154 1033.14 84.7009 1038.13 87.8554L1043.48 79.4034C1037.35 75.5312 1030.4 72.8327 1022.69 71.2547L1020.68 81.0519ZM1038.16 87.8728C1043.11 90.9552 1047.08 95.026 1050.11 100.147L1058.71 95.0554C1054.88 88.5739 1049.78 83.3303 1043.45 79.386L1038.16 87.8728ZM1050.11 100.147C1052.97 104.993 1054.56 111.247 1054.56 119.171H1064.56C1064.56 109.937 1062.71 101.811 1058.71 95.0554L1050.11 100.147ZM1054.56 119.171C1054.56 124.289 1053.88 128.778 1052.6 132.691L1062.1 135.801C1063.76 130.726 1064.56 125.166 1064.56 119.171H1054.56ZM1052.61 132.665C1051.31 136.557 1049.45 140.059 1047.02 143.2L1054.93 149.314C1058.06 145.264 1060.45 140.759 1062.09 135.827L1052.61 132.665ZM1047.01 143.213C1044.67 146.264 1041.77 148.958 1038.28 151.288L1043.82 159.609C1048.17 156.71 1051.89 153.276 1054.94 149.301L1047.01 143.213ZM1038.28 151.288C1034.7 153.676 1030.62 155.759 1026.02 157.521L1029.6 166.858C1034.81 164.861 1039.56 162.451 1043.82 159.609L1038.28 151.288ZM1026.66 167.054C1032.89 168.533 1037.43 170.362 1040.53 172.383L1045.99 164.007C1041.57 161.126 1035.82 158.951 1028.97 157.325L1026.66 167.054ZM1040.63 172.45C1043.86 174.445 1046.25 176.838 1047.92 179.606L1056.48 174.432C1053.91 170.174 1050.33 166.684 1045.88 163.94L1040.63 172.45ZM1048 179.723C1049.82 182.554 1051.16 185.949 1051.95 189.994L1061.77 188.066C1060.76 182.959 1059 178.348 1056.41 174.315L1048 179.723ZM1051.98 190.096C1052.92 194.44 1053.8 199.46 1054.61 205.17L1064.51 203.775C1063.68 197.882 1062.76 192.607 1061.75 187.964L1051.98 190.096ZM1054.61 205.179C1055.43 210.934 1056.41 217.378 1057.56 224.508L1067.44 222.919C1066.29 215.833 1065.32 209.449 1064.51 203.765L1054.61 205.179ZM1057.56 224.517C1058.75 231.817 1060.69 239.806 1063.36 248.47L1072.92 245.53C1070.35 237.199 1068.53 229.664 1067.43 222.91L1057.56 224.517ZM1068.14 242H1042.4V252H1068.14V242ZM1047.31 246.054C1045.61 237.214 1044.27 229.296 1043.31 222.295L1033.4 223.662C1034.4 230.877 1035.76 238.974 1037.49 247.946L1047.31 246.054ZM1043.32 222.358C1042.41 215.105 1041.46 208.683 1040.46 203.1L1030.61 204.863C1031.58 210.23 1032.5 216.471 1033.39 223.599L1043.32 222.358ZM1040.46 203.113C1039.45 197.374 1038.2 192.351 1036.69 188.096L1027.27 191.434C1028.54 195.023 1029.66 199.478 1030.61 204.851L1040.46 203.113ZM1036.73 188.213C1035.23 183.593 1032.94 179.604 1029.76 176.425L1022.69 183.496C1024.57 185.383 1026.12 187.93 1027.23 191.317L1036.73 188.213ZM1029.76 176.425C1026.53 173.2 1022.48 170.977 1017.79 169.638L1015.04 179.253C1018.36 180.202 1020.84 181.655 1022.69 183.496L1029.76 176.425ZM1017.88 169.664C1013.23 168.24 1007.54 167.607 1000.97 167.607V177.607C1006.99 177.607 1011.6 178.199 1014.95 179.226L1017.88 169.664ZM1000.97 167.607H970.58V177.607H1000.97V167.607ZM965.58 172.607V247H975.58V172.607H965.58ZM970.58 242H946.558V252H970.58V242ZM970.457 159.468H998.891V149.468H970.457V159.468ZM998.891 159.468C1004.26 159.468 1009.35 158.852 1014.14 157.587L1011.59 147.918C1007.72 148.94 1003.49 149.468 998.891 149.468V159.468ZM1014.14 157.587C1019.07 156.284 1023.47 154.156 1027.25 151.151L1021.03 143.323C1018.43 145.384 1015.31 146.933 1011.59 147.918L1014.14 157.587ZM1027.2 151.189C1031.18 148.106 1034.21 144.109 1036.31 139.324L1027.16 135.296C1025.67 138.682 1023.63 141.302 1021.07 143.285L1027.2 151.189ZM1036.29 139.366C1038.54 134.387 1039.56 128.579 1039.56 122.113H1029.56C1029.56 127.575 1028.69 131.899 1027.18 135.255L1036.29 139.366ZM1039.56 122.113C1039.56 115.337 1038.27 109.353 1035.18 104.654L1026.83 110.157C1028.47 112.649 1029.56 116.47 1029.56 122.113H1039.56ZM1035.18 104.654C1032.32 100.327 1028.57 97.0094 1023.97 94.8062L1019.65 103.828C1022.56 105.219 1024.94 107.294 1026.83 110.157L1035.18 104.654ZM1024.05 94.8448C1019.66 92.6544 1014.84 91.3617 1009.62 90.9044L1008.75 100.866C1012.85 101.226 1016.44 102.221 1019.57 103.789L1024.05 94.8448ZM1009.72 90.9137C1004.97 90.4053 1000.3 90.1499 995.704 90.1499V100.15C999.931 100.15 1004.25 100.385 1008.65 100.857L1009.72 90.9137ZM995.704 90.1499H970.457V100.15H995.704V90.1499ZM965.457 95.1499V154.468H975.457V95.1499H965.457ZM1232.98 247V252H1243.28L1236.91 243.907L1232.98 247ZM1201.6 247L1197.64 250.055L1199.15 252H1201.6V247ZM1134.81 160.474L1138.77 157.418L1134.88 152.382L1130.9 157.35L1134.81 160.474ZM1127.94 169.053L1124.04 165.929L1122.94 167.299V169.053H1127.94ZM1127.94 247V252H1132.94V247H1127.94ZM1103.92 247H1098.92V252H1103.92V247ZM1103.92 73.9473V68.9473H1098.92V73.9473H1103.92ZM1127.94 73.9473H1132.94V68.9473H1127.94V73.9473ZM1127.94 152.752H1122.94V166.447L1131.77 155.974L1127.94 152.752ZM1141.06 137.188L1137.3 133.885L1137.27 133.925L1137.23 133.966L1141.06 137.188ZM1196.7 73.9473V68.9473H1194.44L1192.95 70.6445L1196.7 73.9473ZM1227.58 73.9473L1231.27 77.3235L1238.94 68.9473H1227.58V73.9473ZM1157.24 150.792L1153.55 147.415L1150.68 150.548L1153.31 153.884L1157.24 150.792ZM1232.98 242H1201.6V252H1232.98V242ZM1205.56 243.945L1138.77 157.418L1130.85 163.529L1197.64 250.055L1205.56 243.945ZM1130.9 157.35L1124.04 165.929L1131.85 172.176L1138.71 163.597L1130.9 157.35ZM1122.94 169.053V247H1132.94V169.053H1122.94ZM1127.94 242H1103.92V252H1127.94V242ZM1108.92 247V73.9473H1098.92V247H1108.92ZM1103.92 78.9473H1127.94V68.9473H1103.92V78.9473ZM1122.94 73.9473V152.752H1132.94V73.9473H1122.94ZM1131.77 155.974L1144.88 140.409L1137.23 133.966L1124.12 149.531L1131.77 155.974ZM1144.81 140.49L1200.45 77.2501L1192.95 70.6445L1137.3 133.885L1144.81 140.49ZM1196.7 78.9473H1227.58V68.9473H1196.7V78.9473ZM1223.9 70.571L1153.55 147.415L1160.92 154.168L1231.27 77.3235L1223.9 70.571ZM1153.31 153.884L1229.05 250.093L1236.91 243.907L1161.16 147.699L1153.31 153.884ZM1291.32 246.877L1289.85 251.656L1289.88 251.666L1289.91 251.675L1291.32 246.877ZM1271.58 237.44L1268.72 241.537L1271.58 237.44ZM1256.88 223.101L1252.82 226.024L1252.83 226.044L1252.85 226.063L1256.88 223.101ZM1246.95 204.84L1242.28 206.627L1242.29 206.652L1242.3 206.677L1246.95 204.84ZM1241.31 183.76L1236.37 184.52L1236.37 184.547L1236.38 184.573L1241.31 183.76ZM1241.43 137.433L1236.51 136.585L1236.5 136.611L1236.5 136.636L1241.43 137.433ZM1247.32 115.985L1242.68 114.118L1242.67 114.143L1242.66 114.167L1247.32 115.985ZM1257.49 97.6011L1253.47 94.6291L1253.46 94.6391L1257.49 97.6011ZM1272.32 83.1392L1275.19 87.2353L1275.21 87.2217L1275.23 87.2078L1272.32 83.1392ZM1291.93 73.7021L1293.36 78.4913L1293.38 78.4862L1293.4 78.481L1291.93 73.7021ZM1341.56 73.7021L1340.08 78.4764L1340.11 78.4862L1340.14 78.4956L1341.56 73.7021ZM1361.3 83.1392L1358.39 87.2078L1358.41 87.2217L1358.43 87.2353L1361.3 83.1392ZM1376 97.6011L1371.95 100.535L1371.98 100.568L1372 100.601L1376 97.6011ZM1386.18 115.985L1381.52 117.803L1386.18 115.985ZM1391.94 137.433L1387 138.229L1387 138.255L1387.01 138.28L1391.94 137.433ZM1392.06 183.76L1387.13 182.947L1387.12 182.973L1387.12 182.999L1392.06 183.76ZM1376.62 223.101L1372.59 220.139L1372.57 220.158L1372.56 220.178L1376.62 223.101ZM1342.18 246.877L1343.6 251.671L1343.62 251.666L1343.63 251.661L1342.18 246.877ZM1341.93 223.224L1339.53 218.84L1339.52 218.847L1339.5 218.853L1341.93 223.224ZM1366.08 186.456L1361.17 185.485L1361.17 185.508L1361.16 185.532L1366.08 186.456ZM1365.95 133.388L1361.05 134.35L1361.05 134.373L1361.06 134.396L1365.95 133.388ZM1357.5 111.573L1353.29 114.282L1357.5 111.573ZM1341.56 96.9883L1339.18 101.382L1339.2 101.393L1339.22 101.405L1341.56 96.9883ZM1292.05 96.9883L1294.4 101.405L1294.42 101.393L1294.44 101.382L1292.05 96.9883ZM1267.29 186.456L1262.38 187.38L1262.38 187.404L1262.39 187.427L1267.29 186.456ZM1291.44 223.224L1289.01 227.594L1289.02 227.601L1289.03 227.607L1291.44 223.224ZM1307.62 27.4976H1312.62V22.4976H1307.62V27.4976ZM1307.62 48.5776V53.5776H1312.62V48.5776H1307.62ZM1280.41 48.5776H1275.41V53.5776H1280.41V48.5776ZM1280.41 27.4976V22.4976H1275.41V27.4976H1280.41ZM1353.94 27.4976H1358.94V22.4976H1353.94V27.4976ZM1353.94 48.5776V53.5776H1358.94V48.5776H1353.94ZM1326.73 48.5776H1321.73V53.5776H1326.73V48.5776ZM1326.73 27.4976V22.4976H1321.73V27.4976H1326.73ZM1316.81 245.187C1307.71 245.187 1299.7 244.127 1292.72 242.08L1289.91 251.675C1297.97 254.04 1306.95 255.187 1316.81 255.187V245.187ZM1292.79 242.099C1285.79 239.947 1279.7 237.017 1274.45 233.344L1268.72 241.537C1274.91 245.871 1281.97 249.233 1289.85 251.656L1292.79 242.099ZM1274.45 233.344C1269.17 229.649 1264.66 225.251 1260.9 220.139L1252.85 226.063C1257.26 232.063 1262.56 237.225 1268.72 241.537L1274.45 233.344ZM1260.93 220.178C1257.18 214.971 1254.07 209.251 1251.6 203.003L1242.3 206.677C1245.06 213.665 1248.56 220.119 1252.82 226.024L1260.93 220.178ZM1251.62 203.053C1249.21 196.769 1247.42 190.07 1246.24 182.947L1236.38 184.573C1237.66 192.32 1239.62 199.675 1242.28 206.627L1251.62 203.053ZM1246.25 182.999C1245.15 175.826 1244.6 168.441 1244.6 160.841H1234.6C1234.6 168.929 1235.19 176.823 1236.37 184.52L1246.25 182.999ZM1244.6 160.841C1244.6 153.09 1245.19 145.554 1246.37 138.229L1236.5 136.636C1235.23 144.509 1234.6 152.578 1234.6 160.841H1244.6ZM1246.36 138.28C1247.62 130.99 1249.49 124.167 1251.97 117.803L1242.66 114.167C1239.91 121.202 1237.87 128.678 1236.51 136.585L1246.36 138.28ZM1251.96 117.852C1254.5 111.523 1257.69 105.765 1261.52 100.563L1253.46 94.6391C1249.12 100.549 1245.52 107.047 1242.68 114.118L1251.96 117.852ZM1261.51 100.573C1265.36 95.3681 1269.91 90.9277 1275.19 87.2353L1269.45 79.043C1263.29 83.3578 1257.96 88.5587 1253.47 94.6291L1261.51 100.573ZM1275.23 87.2078C1280.46 83.4699 1286.49 80.554 1293.36 78.4913L1290.49 68.913C1282.66 71.2624 1275.62 74.6379 1269.41 79.0705L1275.23 87.2078ZM1293.4 78.481C1300.28 76.363 1308.07 75.2705 1316.81 75.2705V65.2705C1307.24 65.2705 1298.44 66.4657 1290.46 68.9233L1293.4 78.481ZM1316.81 75.2705C1325.55 75.2705 1333.29 76.3634 1340.08 78.4764L1343.05 68.9279C1335.13 66.4654 1326.37 65.2705 1316.81 65.2705V75.2705ZM1340.14 78.4956C1347.1 80.5602 1353.17 83.4763 1358.39 87.2078L1364.2 79.0705C1357.99 74.6315 1350.9 71.2562 1342.99 68.9087L1340.14 78.4956ZM1358.43 87.2353C1363.69 90.9208 1368.2 95.349 1371.95 100.535L1380.05 94.6672C1375.64 88.5778 1370.34 83.3647 1364.16 79.043L1358.43 87.2353ZM1372 100.601C1375.89 105.782 1379.06 111.51 1381.52 117.803L1390.83 114.167C1388.06 107.06 1384.45 100.532 1380 94.6011L1372 100.601ZM1381.52 117.803C1384 124.151 1385.83 130.955 1387 138.229L1396.87 136.636C1395.59 128.713 1393.59 121.219 1390.83 114.167L1381.52 117.803ZM1387.01 138.28C1388.27 145.588 1388.9 153.107 1388.9 160.841H1398.9C1398.9 152.561 1398.22 144.474 1396.86 136.585L1387.01 138.28ZM1388.9 160.841C1388.9 168.424 1388.3 175.791 1387.13 182.947L1396.99 184.573C1398.26 176.858 1398.9 168.946 1398.9 160.841H1388.9ZM1387.12 182.999C1386.02 190.105 1384.27 196.786 1381.87 203.053L1391.21 206.627C1393.88 199.658 1395.81 192.285 1397 184.52L1387.12 182.999ZM1381.87 203.053C1379.5 209.264 1376.4 214.954 1372.59 220.139L1380.64 226.063C1385 220.136 1388.52 213.652 1391.21 206.627L1381.87 203.053ZM1372.56 220.178C1368.89 225.27 1364.43 229.656 1359.16 233.344L1364.9 241.537C1371.07 237.218 1376.33 232.044 1380.67 226.024L1372.56 220.178ZM1359.16 233.344C1353.93 237.011 1347.8 239.941 1340.72 242.094L1343.63 251.661C1351.59 249.239 1358.7 245.877 1364.9 241.537L1359.16 233.344ZM1340.76 242.084C1333.87 244.127 1325.91 245.187 1316.81 245.187V255.187C1326.66 255.187 1335.61 254.04 1343.6 251.671L1340.76 242.084ZM1316.81 233.739C1327.51 233.739 1336.79 231.8 1344.36 227.594L1339.5 218.853C1333.84 222.001 1326.37 223.739 1316.81 223.739V233.739ZM1344.34 227.607C1351.76 223.531 1357.72 217.958 1362.11 210.917L1353.62 205.626C1350.17 211.167 1345.5 215.563 1339.53 218.84L1344.34 227.607ZM1362.11 210.917C1366.4 204.033 1369.34 196.163 1370.99 187.38L1361.16 185.532C1359.71 193.254 1357.17 199.927 1353.62 205.626L1362.11 210.917ZM1370.98 187.427C1372.68 178.826 1373.53 169.756 1373.53 160.229H1363.53C1363.53 169.166 1362.74 177.582 1361.17 185.485L1370.98 187.427ZM1373.53 160.229C1373.53 150.371 1372.64 141.083 1370.85 132.38L1361.06 134.396C1362.7 142.361 1363.53 150.967 1363.53 160.229H1373.53ZM1370.86 132.426C1369.12 123.562 1366.09 115.679 1361.7 108.863L1353.29 114.282C1356.91 119.886 1359.52 126.546 1361.05 134.35L1370.86 132.426ZM1361.7 108.863C1357.23 101.925 1351.27 96.4802 1343.91 92.572L1339.22 101.405C1345.09 104.523 1349.76 108.801 1353.29 114.282L1361.7 108.863ZM1343.95 92.5947C1336.41 88.4966 1327.28 86.5957 1316.81 86.5957V96.5957C1326.11 96.5957 1333.49 98.2899 1339.18 101.382L1343.95 92.5947ZM1316.81 86.5957C1306.34 86.5957 1297.21 88.4966 1289.66 92.5947L1294.44 101.382C1300.13 98.2899 1307.5 96.5957 1316.81 96.5957V86.5957ZM1289.71 92.572C1282.34 96.4802 1276.39 101.925 1271.92 108.863L1280.32 114.282C1283.85 108.801 1288.52 104.523 1294.4 101.405L1289.71 92.572ZM1271.92 108.863C1267.53 115.665 1264.46 123.531 1262.64 132.38L1272.44 134.396C1274.05 126.577 1276.7 119.9 1280.32 114.282L1271.92 108.863ZM1262.64 132.38C1260.85 141.083 1259.97 150.371 1259.97 160.229H1269.97C1269.97 150.967 1270.8 142.361 1272.44 134.396L1262.64 132.38ZM1259.97 160.229C1259.97 169.741 1260.77 178.795 1262.38 187.38L1272.21 185.532C1270.72 177.613 1269.97 169.181 1269.97 160.229H1259.97ZM1262.39 187.427C1264.13 196.194 1267.1 204.048 1271.38 210.917L1279.87 205.626C1276.31 199.913 1273.73 193.223 1272.2 185.485L1262.39 187.427ZM1271.38 210.917C1275.77 217.944 1281.67 223.515 1289.01 227.594L1293.87 218.853C1287.97 215.579 1283.33 211.182 1279.87 205.626L1271.38 210.917ZM1289.03 227.607C1296.68 231.802 1306.03 233.739 1316.81 233.739V223.739C1307.16 223.739 1299.6 221.999 1293.84 218.84L1289.03 227.607ZM1302.62 27.4976V48.5776H1312.62V27.4976H1302.62ZM1307.62 43.5776H1280.41V53.5776H1307.62V43.5776ZM1285.41 48.5776V27.4976H1275.41V48.5776H1285.41ZM1280.41 32.4976H1307.62V22.4976H1280.41V32.4976ZM1348.94 27.4976V48.5776H1358.94V27.4976H1348.94ZM1353.94 43.5776H1326.73V53.5776H1353.94V43.5776ZM1331.73 48.5776V27.4976H1321.73V48.5776H1331.73ZM1326.73 32.4976H1353.94V22.4976H1326.73V32.4976ZM1538.64 247V252H1543.64V247H1538.64ZM1416.94 247H1411.94V252H1416.94V247ZM1416.94 225.062L1412.85 222.184L1411.94 223.479V225.062H1416.94ZM1507.88 95.8853L1511.96 98.7635L1517.51 90.8853H1507.88V95.8853ZM1419.51 95.8853H1414.51V100.885H1419.51V95.8853ZM1419.51 73.9473V68.9473H1414.51V73.9473H1419.51ZM1536.43 73.9473H1541.43V68.9473H1536.43V73.9473ZM1536.43 95.6401L1540.52 98.5217L1541.43 97.2258V95.6401H1536.43ZM1445.25 224.939L1441.16 222.058L1435.6 229.939H1445.25V224.939ZM1538.64 224.939H1543.64V219.939H1538.64V224.939ZM1538.64 242H1416.94V252H1538.64V242ZM1421.94 247V225.062H1411.94V247H1421.94ZM1421.03 227.94L1511.96 98.7635L1503.79 93.007L1412.85 222.184L1421.03 227.94ZM1507.88 90.8853H1419.51V100.885H1507.88V90.8853ZM1424.51 95.8853V73.9473H1414.51V95.8853H1424.51ZM1419.51 78.9473H1536.43V68.9473H1419.51V78.9473ZM1531.43 73.9473V95.6401H1541.43V73.9473H1531.43ZM1532.35 92.7585L1441.16 222.058L1449.34 227.821L1540.52 98.5217L1532.35 92.7585ZM1445.25 229.939H1538.64V219.939H1445.25V229.939ZM1533.64 224.939V247H1543.64V224.939H1533.64ZM1573.32 247H1568.32V252H1573.32V247ZM1573.32 73.9473V68.9473H1568.32V73.9473H1573.32ZM1597.34 73.9473H1602.34V68.9473H1597.34V73.9473ZM1597.34 247V252H1602.34V247H1597.34ZM1578.32 247V73.9473H1568.32V247H1578.32ZM1573.32 78.9473H1597.34V68.9473H1573.32V78.9473ZM1592.34 73.9473V247H1602.34V73.9473H1592.34ZM1597.34 242H1573.32V252H1597.34V242ZM1837.68 247V252H1847.98L1841.61 243.907L1837.68 247ZM1806.31 247L1802.35 250.055L1803.85 252H1806.31V247ZM1739.51 160.474L1743.47 157.418L1739.58 152.382L1735.61 157.35L1739.51 160.474ZM1732.65 169.053L1728.74 165.929L1727.65 167.299V169.053H1732.65ZM1732.65 247V252H1737.65V247H1732.65ZM1708.63 247H1703.63V252H1708.63V247ZM1708.63 73.9473V68.9473H1703.63V73.9473H1708.63ZM1732.65 73.9473H1737.65V68.9473H1732.65V73.9473ZM1732.65 152.752H1727.65V166.447L1736.47 155.974L1732.65 152.752ZM1745.76 137.188L1742.01 133.885L1741.97 133.925L1741.94 133.966L1745.76 137.188ZM1801.4 73.9473V68.9473H1799.14L1797.65 70.6445L1801.4 73.9473ZM1832.29 73.9473L1835.98 77.3235L1843.65 68.9473H1832.29V73.9473ZM1761.94 150.792L1758.25 147.415L1755.38 150.548L1758.01 153.884L1761.94 150.792ZM1837.68 242H1806.31V252H1837.68V242ZM1810.26 243.945L1743.47 157.418L1735.55 163.529L1802.35 250.055L1810.26 243.945ZM1735.61 157.35L1728.74 165.929L1736.55 172.176L1743.42 163.597L1735.61 157.35ZM1727.65 169.053V247H1737.65V169.053H1727.65ZM1732.65 242H1708.63V252H1732.65V242ZM1713.63 247V73.9473H1703.63V247H1713.63ZM1708.63 78.9473H1732.65V68.9473H1708.63V78.9473ZM1727.65 73.9473V152.752H1737.65V73.9473H1727.65ZM1736.47 155.974L1749.59 140.409L1741.94 133.966L1728.83 149.531L1736.47 155.974ZM1749.52 140.49L1805.16 77.2501L1797.65 70.6445L1742.01 133.885L1749.52 140.49ZM1801.4 78.9473H1832.29V68.9473H1801.4V78.9473ZM1828.6 70.571L1758.25 147.415L1765.63 154.168L1835.98 77.3235L1828.6 70.571ZM1758.01 153.884L1833.75 250.093L1841.61 243.907L1765.87 147.699L1758.01 153.884ZM1859.5 247H1854.5V252H1859.5V247ZM1859.5 73.9473V68.9473H1854.5V73.9473H1859.5ZM1883.64 73.9473H1888.64V68.9473H1883.64V73.9473ZM1883.64 224.939H1878.64V229.939H1883.64V224.939ZM1957.67 224.939H1962.67V219.939H1957.67V224.939ZM1957.67 247V252H1962.67V247H1957.67ZM1864.5 247V73.9473H1854.5V247H1864.5ZM1859.5 78.9473H1883.64V68.9473H1859.5V78.9473ZM1878.64 73.9473V224.939H1888.64V73.9473H1878.64ZM1883.64 229.939H1957.67V219.939H1883.64V229.939ZM1952.67 224.939V247H1962.67V224.939H1952.67ZM1957.67 242H1859.5V252H1957.67V242ZM1985.36 247H1980.36V252H1985.36V247ZM1985.36 73.9473V68.9473H1980.36V73.9473H1985.36ZM2009.39 73.9473H2014.39V68.9473H2009.39V73.9473ZM2009.39 247V252H2014.39V247H2009.39ZM1974.21 53.48L1969.82 51.0917L1965.8 58.48H1974.21V53.48ZM1994.8 15.6094V10.6094H1991.83L1990.41 13.2211L1994.8 15.6094ZM2021.64 15.6094L2025.49 18.7993L2032.28 10.6094H2021.64V15.6094ZM1990.27 53.48V58.48H1992.62L1994.12 56.6699L1990.27 53.48ZM1990.36 247V73.9473H1980.36V247H1990.36ZM1985.36 78.9473H2009.39V68.9473H1985.36V78.9473ZM2004.39 73.9473V247H2014.39V73.9473H2004.39ZM2009.39 242H1985.36V252H2009.39V242ZM1978.6 55.8683L1999.19 17.9977L1990.41 13.2211L1969.82 51.0917L1978.6 55.8683ZM1994.8 20.6094H2021.64V10.6094H1994.8V20.6094ZM2017.79 12.4195L1986.42 50.2901L1994.12 56.6699L2025.49 18.7993L2017.79 12.4195ZM1990.27 48.48H1974.21V58.48H1990.27V48.48ZM2204.87 247H2199.87V252H2204.87V247ZM2204.87 149.566L2199.87 149.46L2199.87 149.513V149.566H2204.87ZM2204.99 136.452L2199.99 136.369L2199.99 136.41V136.452H2204.99ZM2205.11 121.132L2200.11 121.057L2200.11 121.094V121.132H2205.11ZM2205.36 106.548L2210.36 106.642L2210.44 102.326L2206.18 101.616L2205.36 106.548ZM2202.42 106.058L2203.24 101.126L2199.12 100.439L2197.71 104.368L2202.42 106.058ZM2151.8 247V252H2155.32L2156.51 248.69L2151.8 247ZM2130.47 247L2125.76 248.653L2126.93 252H2130.47V247ZM2081.57 107.406L2086.29 105.753L2084.91 101.808L2080.78 102.469L2081.57 107.406ZM2078.51 107.896L2077.72 102.959L2073.43 103.645L2073.51 107.99L2078.51 107.896ZM2078.75 122.358L2073.75 122.435L2073.76 122.436L2078.75 122.358ZM2079 137.555L2074 137.638L2074 137.64L2079 137.555ZM2079.12 150.424H2074.12V150.479L2074.12 150.535L2079.12 150.424ZM2079.24 247V252H2084.24V247H2079.24ZM2056.08 247H2051.08V252H2056.08V247ZM2056.08 73.9473V68.9473H2051.08V73.9473H2056.08ZM2094.69 73.9473L2099.43 72.376L2098.3 68.9473H2094.69V73.9473ZM2141.75 216.115L2137 217.687L2141.61 231.61L2146.47 217.771L2141.75 216.115ZM2191.63 73.9473V68.9473H2188.09L2186.91 72.2919L2191.63 73.9473ZM2228.77 73.9473H2233.77V68.9473H2228.77V73.9473ZM2228.77 247V252H2233.77V247H2228.77ZM2209.87 247V156.919H2199.87V247H2209.87ZM2209.87 156.919C2209.87 156.917 2209.87 156.915 2209.87 156.913C2209.87 156.91 2209.87 156.908 2209.87 156.906C2209.87 156.904 2209.87 156.901 2209.87 156.899C2209.87 156.897 2209.87 156.895 2209.87 156.892C2209.87 156.89 2209.87 156.888 2209.87 156.886C2209.87 156.883 2209.87 156.881 2209.87 156.879C2209.87 156.876 2209.87 156.874 2209.87 156.872C2209.87 156.869 2209.87 156.867 2209.87 156.865C2209.87 156.863 2209.87 156.86 2209.87 156.858C2209.87 156.856 2209.87 156.853 2209.87 156.851C2209.87 156.849 2209.87 156.846 2209.87 156.844C2209.87 156.842 2209.87 156.839 2209.87 156.837C2209.87 156.834 2209.87 156.832 2209.87 156.83C2209.87 156.827 2209.87 156.825 2209.87 156.823C2209.87 156.82 2209.87 156.818 2209.87 156.816C2209.87 156.813 2209.87 156.811 2209.87 156.808C2209.87 156.806 2209.87 156.804 2209.87 156.801C2209.87 156.799 2209.87 156.796 2209.87 156.794C2209.87 156.792 2209.87 156.789 2209.87 156.787C2209.87 156.784 2209.87 156.782 2209.87 156.779C2209.87 156.777 2209.87 156.775 2209.87 156.772C2209.87 156.77 2209.87 156.767 2209.87 156.765C2209.87 156.762 2209.87 156.76 2209.87 156.757C2209.87 156.755 2209.87 156.752 2209.87 156.75C2209.87 156.747 2209.87 156.745 2209.87 156.743C2209.87 156.74 2209.87 156.738 2209.87 156.735C2209.87 156.733 2209.87 156.73 2209.87 156.728C2209.87 156.725 2209.87 156.723 2209.87 156.72C2209.87 156.718 2209.87 156.715 2209.87 156.712C2209.87 156.71 2209.87 156.707 2209.87 156.705C2209.87 156.702 2209.87 156.7 2209.87 156.697C2209.87 156.695 2209.87 156.692 2209.87 156.69C2209.87 156.687 2209.87 156.685 2209.87 156.682C2209.87 156.679 2209.87 156.677 2209.87 156.674C2209.87 156.672 2209.87 156.669 2209.87 156.667C2209.87 156.664 2209.87 156.661 2209.87 156.659C2209.87 156.656 2209.87 156.654 2209.87 156.651C2209.87 156.648 2209.87 156.646 2209.87 156.643C2209.87 156.641 2209.87 156.638 2209.87 156.635C2209.87 156.633 2209.87 156.63 2209.87 156.627C2209.87 156.625 2209.87 156.622 2209.87 156.619C2209.87 156.617 2209.87 156.614 2209.87 156.612C2209.87 156.609 2209.87 156.606 2209.87 156.604C2209.87 156.601 2209.87 156.598 2209.87 156.596C2209.87 156.593 2209.87 156.59 2209.87 156.588C2209.87 156.585 2209.87 156.582 2209.87 156.579C2209.87 156.577 2209.87 156.574 2209.87 156.571C2209.87 156.569 2209.87 156.566 2209.87 156.563C2209.87 156.561 2209.87 156.558 2209.87 156.555C2209.87 156.552 2209.87 156.55 2209.87 156.547C2209.87 156.544 2209.87 156.541 2209.87 156.539C2209.87 156.536 2209.87 156.533 2209.87 156.53C2209.87 156.528 2209.87 156.525 2209.87 156.522C2209.87 156.519 2209.87 156.517 2209.87 156.514C2209.87 156.511 2209.87 156.508 2209.87 156.506C2209.87 156.503 2209.87 156.5 2209.87 156.497C2209.87 156.494 2209.87 156.492 2209.87 156.489C2209.87 156.486 2209.87 156.483 2209.87 156.48C2209.87 156.478 2209.87 156.475 2209.87 156.472C2209.87 156.469 2209.87 156.466 2209.87 156.463C2209.87 156.461 2209.87 156.458 2209.87 156.455C2209.87 156.452 2209.87 156.449 2209.87 156.446C2209.87 156.444 2209.87 156.441 2209.87 156.438C2209.87 156.435 2209.87 156.432 2209.87 156.429C2209.87 156.426 2209.87 156.423 2209.87 156.421C2209.87 156.418 2209.87 156.415 2209.87 156.412C2209.87 156.409 2209.87 156.406 2209.87 156.403C2209.87 156.4 2209.87 156.397 2209.87 156.394C2209.87 156.392 2209.87 156.389 2209.87 156.386C2209.87 156.383 2209.87 156.38 2209.87 156.377C2209.87 156.374 2209.87 156.371 2209.87 156.368C2209.87 156.365 2209.87 156.362 2209.87 156.359C2209.87 156.356 2209.87 156.353 2209.87 156.35C2209.87 156.347 2209.87 156.345 2209.87 156.342C2209.87 156.339 2209.87 156.336 2209.87 156.333C2209.87 156.33 2209.87 156.327 2209.87 156.324C2209.87 156.321 2209.87 156.318 2209.87 156.315C2209.87 156.312 2209.87 156.309 2209.87 156.306C2209.87 156.303 2209.87 156.3 2209.87 156.297C2209.87 156.294 2209.87 156.291 2209.87 156.287C2209.87 156.284 2209.87 156.281 2209.87 156.278C2209.87 156.275 2209.87 156.272 2209.87 156.269C2209.87 156.266 2209.87 156.263 2209.87 156.26C2209.87 156.257 2209.87 156.254 2209.87 156.251C2209.87 156.248 2209.87 156.245 2209.87 156.242C2209.87 156.239 2209.87 156.235 2209.87 156.232C2209.87 156.229 2209.87 156.226 2209.87 156.223C2209.87 156.22 2209.87 156.217 2209.87 156.214C2209.87 156.211 2209.87 156.208 2209.87 156.204C2209.87 156.201 2209.87 156.198 2209.87 156.195C2209.87 156.192 2209.87 156.189 2209.87 156.186C2209.87 156.182 2209.87 156.179 2209.87 156.176C2209.87 156.173 2209.87 156.17 2209.87 156.167C2209.87 156.164 2209.87 156.16 2209.87 156.157C2209.87 156.154 2209.87 156.151 2209.87 156.148C2209.87 156.145 2209.87 156.141 2209.87 156.138C2209.87 156.135 2209.87 156.132 2209.87 156.129C2209.87 156.125 2209.87 156.122 2209.87 156.119C2209.87 156.116 2209.87 156.112 2209.87 156.109C2209.87 156.106 2209.87 156.103 2209.87 156.1C2209.87 156.096 2209.87 156.093 2209.87 156.09C2209.87 156.087 2209.87 156.083 2209.87 156.08C2209.87 156.077 2209.87 156.074 2209.87 156.07C2209.87 156.067 2209.87 156.064 2209.87 156.061C2209.87 156.057 2209.87 156.054 2209.87 156.051C2209.87 156.047 2209.87 156.044 2209.87 156.041C2209.87 156.038 2209.87 156.034 2209.87 156.031C2209.87 156.028 2209.87 156.024 2209.87 156.021C2209.87 156.018 2209.87 156.014 2209.87 156.011C2209.87 156.008 2209.87 156.004 2209.87 156.001C2209.87 155.998 2209.87 155.994 2209.87 155.991C2209.87 155.988 2209.87 155.984 2209.87 155.981C2209.87 155.978 2209.87 155.974 2209.87 155.971C2209.87 155.968 2209.87 155.964 2209.87 155.961C2209.87 155.958 2209.87 155.954 2209.87 155.951C2209.87 155.947 2209.87 155.944 2209.87 155.941C2209.87 155.937 2209.87 155.934 2209.87 155.93C2209.87 155.927 2209.87 155.924 2209.87 155.92C2209.87 155.917 2209.87 155.913 2209.87 155.91C2209.87 155.907 2209.87 155.903 2209.87 155.9C2209.87 155.896 2209.87 155.893 2209.87 155.889C2209.87 155.886 2209.87 155.883 2209.87 155.879C2209.87 155.876 2209.87 155.872 2209.87 155.869C2209.87 155.865 2209.87 155.862 2209.87 155.858C2209.87 155.855 2209.87 155.851 2209.87 155.848C2209.87 155.844 2209.87 155.841 2209.87 155.837C2209.87 155.834 2209.87 155.83 2209.87 155.827C2209.87 155.823 2209.87 155.82 2209.87 155.816C2209.87 155.813 2209.87 155.809 2209.87 155.806C2209.87 155.802 2209.87 155.799 2209.87 155.795C2209.87 155.792 2209.87 155.788 2209.87 155.785C2209.87 155.781 2209.87 155.778 2209.87 155.774C2209.87 155.77 2209.87 155.767 2209.87 155.763C2209.87 155.76 2209.87 155.756 2209.87 155.753C2209.87 155.749 2209.87 155.746 2209.87 155.742C2209.87 155.738 2209.87 155.735 2209.87 155.731C2209.87 155.728 2209.87 155.724 2209.87 155.72C2209.87 155.717 2209.87 155.713 2209.87 155.71C2209.87 155.706 2209.87 155.702 2209.87 155.699C2209.87 155.695 2209.87 155.691 2209.87 155.688C2209.87 155.684 2209.87 155.681 2209.87 155.677C2209.87 155.673 2209.87 155.67 2209.87 155.666C2209.87 155.662 2209.87 155.659 2209.87 155.655C2209.87 155.651 2209.87 155.648 2209.87 155.644C2209.87 155.64 2209.87 155.637 2209.87 155.633C2209.87 155.629 2209.87 155.626 2209.87 155.622C2209.87 155.618 2209.87 155.615 2209.87 155.611C2209.87 155.607 2209.87 155.603 2209.87 155.6C2209.87 155.596 2209.87 155.592 2209.87 155.589C2209.87 155.585 2209.87 155.581 2209.87 155.577C2209.87 155.574 2209.87 155.57 2209.87 155.566C2209.87 155.563 2209.87 155.559 2209.87 155.555C2209.87 155.551 2209.87 155.548 2209.87 155.544C2209.87 155.54 2209.87 155.536 2209.87 155.532C2209.87 155.529 2209.87 155.525 2209.87 155.521C2209.87 155.517 2209.87 155.514 2209.87 155.51C2209.87 155.506 2209.87 155.502 2209.87 155.498C2209.87 155.495 2209.87 155.491 2209.87 155.487C2209.87 155.483 2209.87 155.479 2209.87 155.476C2209.87 155.472 2209.87 155.468 2209.87 155.464C2209.87 155.46 2209.87 155.456 2209.87 155.453C2209.87 155.449 2209.87 155.445 2209.87 155.441C2209.87 155.437 2209.87 155.433 2209.87 155.429C2209.87 155.426 2209.87 155.422 2209.87 155.418C2209.87 155.414 2209.87 155.41 2209.87 155.406C2209.87 155.402 2209.87 155.398 2209.87 155.395C2209.87 155.391 2209.87 155.387 2209.87 155.383C2209.87 155.379 2209.87 155.375 2209.87 155.371C2209.87 155.367 2209.87 155.363 2209.87 155.359C2209.87 155.356 2209.87 155.352 2209.87 155.348C2209.87 155.344 2209.87 155.34 2209.87 155.336C2209.87 155.332 2209.87 155.328 2209.87 155.324C2209.87 155.32 2209.87 155.316 2209.87 155.312C2209.87 155.308 2209.87 155.304 2209.87 155.3C2209.87 155.296 2209.87 155.292 2209.87 155.288C2209.87 155.284 2209.87 155.28 2209.87 155.276C2209.87 155.272 2209.87 155.268 2209.87 155.264C2209.87 155.26 2209.87 155.256 2209.87 155.252C2209.87 155.248 2209.87 155.244 2209.87 155.24C2209.87 155.236 2209.87 155.232 2209.87 155.228C2209.87 155.224 2209.87 155.22 2209.87 155.216C2209.87 155.212 2209.87 155.208 2209.87 155.204C2209.87 155.2 2209.87 155.196 2209.87 155.192C2209.87 155.188 2209.87 155.184 2209.87 155.18C2209.87 155.176 2209.87 155.172 2209.87 155.167C2209.87 155.163 2209.87 155.159 2209.87 155.155C2209.87 155.151 2209.87 155.147 2209.87 155.143C2209.87 155.139 2209.87 155.135 2209.87 155.131C2209.87 155.126 2209.87 155.122 2209.87 155.118C2209.87 155.114 2209.87 155.11 2209.87 155.106C2209.87 155.102 2209.87 155.098 2209.87 155.093C2209.87 155.089 2209.87 155.085 2209.87 155.081C2209.87 155.077 2209.87 155.073 2209.87 155.069C2209.87 155.064 2209.87 155.06 2209.87 155.056C2209.87 155.052 2209.87 155.048 2209.87 155.044C2209.87 155.039 2209.87 155.035 2209.87 155.031C2209.87 155.027 2209.87 155.023 2209.87 155.018C2209.87 155.014 2209.87 155.01 2209.87 155.006C2209.87 155.002 2209.87 154.997 2209.87 154.993C2209.87 154.989 2209.87 154.985 2209.87 154.981C2209.87 154.976 2209.87 154.972 2209.87 154.968C2209.87 154.964 2209.87 154.959 2209.87 154.955C2209.87 154.951 2209.87 154.947 2209.87 154.942C2209.87 154.938 2209.87 154.934 2209.87 154.93C2209.87 154.925 2209.87 154.921 2209.87 154.917C2209.87 154.912 2209.87 154.908 2209.87 154.904C2209.87 154.9 2209.87 154.895 2209.87 154.891C2209.87 154.887 2209.87 154.882 2209.87 154.878C2209.87 154.874 2209.87 154.869 2209.87 154.865C2209.87 154.861 2209.87 154.856 2209.87 154.852C2209.87 154.848 2209.87 154.843 2209.87 154.839C2209.87 154.835 2209.87 154.83 2209.87 154.826C2209.87 154.822 2209.87 154.817 2209.87 154.813C2209.87 154.809 2209.87 154.804 2209.87 154.8C2209.87 154.796 2209.87 154.791 2209.87 154.787C2209.87 154.782 2209.87 154.778 2209.87 154.774C2209.87 154.769 2209.87 154.765 2209.87 154.761C2209.87 154.756 2209.87 154.752 2209.87 154.747C2209.87 154.743 2209.87 154.738 2209.87 154.734C2209.87 154.73 2209.87 154.725 2209.87 154.721C2209.87 154.716 2209.87 154.712 2209.87 154.707C2209.87 154.703 2209.87 154.699 2209.87 154.694C2209.87 154.69 2209.87 154.685 2209.87 154.681C2209.87 154.676 2209.87 154.672 2209.87 154.667C2209.87 154.663 2209.87 154.658 2209.87 154.654C2209.87 154.65 2209.87 154.645 2209.87 154.641C2209.87 154.636 2209.87 154.632 2209.87 154.627C2209.87 154.623 2209.87 154.618 2209.87 154.614C2209.87 154.609 2209.87 154.605 2209.87 154.6C2209.87 154.596 2209.87 154.591 2209.87 154.586C2209.87 154.582 2209.87 154.577 2209.87 154.573C2209.87 154.568 2209.87 154.564 2209.87 154.559C2209.87 154.555 2209.87 154.55 2209.87 154.546C2209.87 154.541 2209.87 154.536 2209.87 154.532C2209.87 154.527 2209.87 154.523 2209.87 154.518C2209.87 154.514 2209.87 154.509 2209.87 154.504C2209.87 154.5 2209.87 154.495 2209.87 154.491C2209.87 154.486 2209.87 154.481 2209.87 154.477C2209.87 154.472 2209.87 154.468 2209.87 154.463C2209.87 154.458 2209.87 154.454 2209.87 154.449C2209.87 154.444 2209.87 154.44 2209.87 154.435C2209.87 154.431 2209.87 154.426 2209.87 154.421C2209.87 154.417 2209.87 154.412 2209.87 154.407C2209.87 154.403 2209.87 154.398 2209.87 154.393C2209.87 154.389 2209.87 154.384 2209.87 154.379C2209.87 154.375 2209.87 154.37 2209.87 154.365C2209.87 154.361 2209.87 154.356 2209.87 154.351C2209.87 154.346 2209.87 154.342 2209.87 154.337C2209.87 154.332 2209.87 154.328 2209.87 154.323C2209.87 154.318 2209.87 154.314 2209.87 154.309C2209.87 154.304 2209.87 154.299 2209.87 154.295C2209.87 154.29 2209.87 154.285 2209.87 154.28C2209.87 154.276 2209.87 154.271 2209.87 154.266C2209.87 154.261 2209.87 154.257 2209.87 154.252C2209.87 154.247 2209.87 154.242 2209.87 154.237C2209.87 154.233 2209.87 154.228 2209.87 154.223C2209.87 154.218 2209.87 154.214 2209.87 154.209C2209.87 154.204 2209.87 154.199 2209.87 154.194C2209.87 154.19 2209.87 154.185 2209.87 154.18C2209.87 154.175 2209.87 154.17 2209.87 154.165C2209.87 154.161 2209.87 154.156 2209.87 154.151C2209.87 154.146 2209.87 154.141 2209.87 154.136C2209.87 154.132 2209.87 154.127 2209.87 154.122C2209.87 154.117 2209.87 154.112 2209.87 154.107C2209.87 154.102 2209.87 154.098 2209.87 154.093C2209.87 154.088 2209.87 154.083 2209.87 154.078C2209.87 154.073 2209.87 154.068 2209.87 154.063C2209.87 154.058 2209.87 154.054 2209.87 154.049C2209.87 154.044 2209.87 154.039 2209.87 154.034C2209.87 154.029 2209.87 154.024 2209.87 154.019C2209.87 154.014 2209.87 154.009 2209.87 154.004C2209.87 153.999 2209.87 153.994 2209.87 153.99C2209.87 153.985 2209.87 153.98 2209.87 153.975C2209.87 153.97 2209.87 153.965 2209.87 153.96C2209.87 153.955 2209.87 153.95 2209.87 153.945C2209.87 153.94 2209.87 153.935 2209.87 153.93C2209.87 153.925 2209.87 153.92 2209.87 153.915C2209.87 153.91 2209.87 153.905 2209.87 153.9C2209.87 153.895 2209.87 153.89 2209.87 153.885C2209.87 153.88 2209.87 153.875 2209.87 153.87C2209.87 153.865 2209.87 153.86 2209.87 153.855C2209.87 153.85 2209.87 153.845 2209.87 153.84C2209.87 153.835 2209.87 153.83 2209.87 153.824C2209.87 153.819 2209.87 153.814 2209.87 153.809C2209.87 153.804 2209.87 153.799 2209.87 153.794C2209.87 153.789 2209.87 153.784 2209.87 153.779C2209.87 153.774 2209.87 153.769 2209.87 153.764C2209.87 153.758 2209.87 153.753 2209.87 153.748C2209.87 153.743 2209.87 153.738 2209.87 153.733C2209.87 153.728 2209.87 153.723 2209.87 153.718C2209.87 153.712 2209.87 153.707 2209.87 153.702C2209.87 153.697 2209.87 153.692 2209.87 153.687C2209.87 153.682 2209.87 153.676 2209.87 153.671C2209.87 153.666 2209.87 153.661 2209.87 153.656C2209.87 153.651 2209.87 153.645 2209.87 153.64C2209.87 153.635 2209.87 153.63 2209.87 153.625C2209.87 153.62 2209.87 153.614 2209.87 153.609C2209.87 153.604 2209.87 153.599 2209.87 153.594C2209.87 153.588 2209.87 153.583 2209.87 153.578C2209.87 153.573 2209.87 153.567 2209.87 153.562C2209.87 153.557 2209.87 153.552 2209.87 153.547C2209.87 153.541 2209.87 153.536 2209.87 153.531C2209.87 153.526 2209.87 153.52 2209.87 153.515C2209.87 153.51 2209.87 153.505 2209.87 153.499C2209.87 153.494 2209.87 153.489 2209.87 153.483C2209.87 153.478 2209.87 153.473 2209.87 153.468C2209.87 153.462 2209.87 153.457 2209.87 153.452C2209.87 153.446 2209.87 153.441 2209.87 153.436C2209.87 153.431 2209.87 153.425 2209.87 153.42C2209.87 153.415 2209.87 153.409 2209.87 153.404C2209.87 153.399 2209.87 153.393 2209.87 153.388C2209.87 153.383 2209.87 153.377 2209.87 153.372C2209.87 153.367 2209.87 153.361 2209.87 153.356C2209.87 153.351 2209.87 153.345 2209.87 153.34C2209.87 153.334 2209.87 153.329 2209.87 153.324C2209.87 153.318 2209.87 153.313 2209.87 153.308C2209.87 153.302 2209.87 153.297 2209.87 153.291C2209.87 153.286 2209.87 153.281 2209.87 153.275C2209.87 153.27 2209.87 153.264 2209.87 153.259C2209.87 153.254 2209.87 153.248 2209.87 153.243C2209.87 153.237 2209.87 153.232 2209.87 153.226C2209.87 153.221 2209.87 153.216 2209.87 153.21C2209.87 153.205 2209.87 153.199 2209.87 153.194C2209.87 153.188 2209.87 153.183 2209.87 153.177C2209.87 153.172 2209.87 153.166 2209.87 153.161C2209.87 153.155 2209.87 153.15 2209.87 153.144C2209.87 153.139 2209.87 153.133 2209.87 153.128C2209.87 153.123 2209.87 153.117 2209.87 153.111C2209.87 153.106 2209.87 153.1 2209.87 153.095C2209.87 153.089 2209.87 153.084 2209.87 153.078C2209.87 153.073 2209.87 153.067 2209.87 153.062C2209.87 153.056 2209.87 153.051 2209.87 153.045C2209.87 153.04 2209.87 153.034 2209.87 153.029C2209.87 153.023 2209.87 153.017 2209.87 153.012C2209.87 153.006 2209.87 153.001 2209.87 152.995C2209.87 152.99 2209.87 152.984 2209.87 152.978C2209.87 152.973 2209.87 152.967 2209.87 152.962C2209.87 152.956 2209.87 152.95 2209.87 152.945C2209.87 152.939 2209.87 152.934 2209.87 152.928C2209.87 152.922 2209.87 152.917 2209.87 152.911C2209.87 152.906 2209.87 152.9 2209.87 152.894C2209.87 152.889 2209.87 152.883 2209.87 152.877C2209.87 152.872 2209.87 152.866 2209.87 152.86C2209.87 152.855 2209.87 152.849 2209.87 152.843C2209.87 152.838 2209.87 152.832 2209.87 152.826C2209.87 152.821 2209.87 152.815 2209.87 152.809C2209.87 152.804 2209.87 152.798 2209.87 152.792C2209.87 152.787 2209.87 152.781 2209.87 152.775C2209.87 152.769 2209.87 152.764 2209.87 152.758C2209.87 152.752 2209.87 152.747 2209.87 152.741C2209.87 152.735 2209.87 152.729 2209.87 152.724C2209.87 152.718 2209.87 152.712 2209.87 152.706C2209.87 152.701 2209.87 152.695 2209.87 152.689C2209.87 152.683 2209.87 152.678 2209.87 152.672C2209.87 152.666 2209.87 152.66 2209.87 152.655C2209.87 152.649 2209.87 152.643 2209.87 152.637C2209.87 152.632 2209.87 152.626 2209.87 152.62C2209.87 152.614 2209.87 152.608 2209.87 152.603C2209.87 152.597 2209.87 152.591 2209.87 152.585C2209.87 152.579 2209.87 152.573 2209.87 152.568C2209.87 152.562 2209.87 152.556 2209.87 152.55C2209.87 152.544 2209.87 152.538 2209.87 152.533C2209.87 152.527 2209.87 152.521 2209.87 152.515C2209.87 152.509 2209.87 152.503 2209.87 152.498C2209.87 152.492 2209.87 152.486 2209.87 152.48C2209.87 152.474 2209.87 152.468 2209.87 152.462C2209.87 152.456 2209.87 152.45 2209.87 152.445C2209.87 152.439 2209.87 152.433 2209.87 152.427C2209.87 152.421 2209.87 152.415 2209.87 152.409C2209.87 152.403 2209.87 152.397 2209.87 152.391C2209.87 152.385 2209.87 152.38 2209.87 152.374C2209.87 152.368 2209.87 152.362 2209.87 152.356C2209.87 152.35 2209.87 152.344 2209.87 152.338C2209.87 152.332 2209.87 152.326 2209.87 152.32C2209.87 152.314 2209.87 152.308 2209.87 152.302C2209.87 152.296 2209.87 152.29 2209.87 152.284C2209.87 152.278 2209.87 152.272 2209.87 152.266C2209.87 152.26 2209.87 152.254 2209.87 152.248C2209.87 152.242 2209.87 152.236 2209.87 152.23C2209.87 152.224 2209.87 152.218 2209.87 152.212C2209.87 152.206 2209.87 152.2 2209.87 152.194C2209.87 152.188 2209.87 152.182 2209.87 152.176C2209.87 152.17 2209.87 152.164 2209.87 152.158C2209.87 152.152 2209.87 152.146 2209.87 152.14C2209.87 152.134 2209.87 152.128 2209.87 152.121C2209.87 152.115 2209.87 152.109 2209.87 152.103C2209.87 152.097 2209.87 152.091 2209.87 152.085C2209.87 152.079 2209.87 152.073 2209.87 152.067C2209.87 152.061 2209.87 152.054 2209.87 152.048C2209.87 152.042 2209.87 152.036 2209.87 152.03C2209.87 152.024 2209.87 152.018 2209.87 152.012C2209.87 152.005 2209.87 151.999 2209.87 151.993C2209.87 151.987 2209.87 151.981 2209.87 151.975C2209.87 151.969 2209.87 151.962 2209.87 151.956C2209.87 151.95 2209.87 151.944 2209.87 151.938C2209.87 151.932 2209.87 151.925 2209.87 151.919C2209.87 151.913 2209.87 151.907 2209.87 151.901C2209.87 151.894 2209.87 151.888 2209.87 151.882C2209.87 151.876 2209.87 151.87 2209.87 151.863C2209.87 151.857 2209.87 151.851 2209.87 151.845C2209.87 151.839 2209.87 151.832 2209.87 151.826C2209.87 151.82 2209.87 151.814 2209.87 151.807C2209.87 151.801 2209.87 151.795 2209.87 151.789C2209.87 151.782 2209.87 151.776 2209.87 151.77C2209.87 151.764 2209.87 151.757 2209.87 151.751C2209.87 151.745 2209.87 151.738 2209.87 151.732C2209.87 151.726 2209.87 151.72 2209.87 151.713C2209.87 151.707 2209.87 151.701 2209.87 151.694C2209.87 151.688 2209.87 151.682 2209.87 151.675C2209.87 151.669 2209.87 151.663 2209.87 151.657C2209.87 151.65 2209.87 151.644 2209.87 151.638C2209.87 151.631 2209.87 151.625 2209.87 151.619C2209.87 151.612 2209.87 151.606 2209.87 151.599C2209.87 151.593 2209.87 151.587 2209.87 151.58C2209.87 151.574 2209.87 151.568 2209.87 151.561C2209.87 151.555 2209.87 151.549 2209.87 151.542C2209.87 151.536 2209.87 151.529 2209.87 151.523C2209.87 151.517 2209.87 151.51 2209.87 151.504C2209.87 151.497 2209.87 151.491 2209.87 151.485C2209.87 151.478 2209.87 151.472 2209.87 151.465C2209.87 151.459 2209.87 151.452 2209.87 151.446C2209.87 151.44 2209.87 151.433 2209.87 151.427C2209.87 151.42 2209.87 151.414 2209.87 151.407C2209.87 151.401 2209.87 151.394 2209.87 151.388C2209.87 151.382 2209.87 151.375 2209.87 151.369C2209.87 151.362 2209.87 151.356 2209.87 151.349C2209.87 151.343 2209.87 151.336 2209.87 151.33C2209.87 151.323 2209.87 151.317 2209.87 151.31C2209.87 151.304 2209.87 151.297 2209.87 151.291C2209.87 151.284 2209.87 151.278 2209.87 151.271C2209.87 151.265 2209.87 151.258 2209.87 151.252C2209.87 151.245 2209.87 151.238 2209.87 151.232C2209.87 151.225 2209.87 151.219 2209.87 151.212C2209.87 151.206 2209.87 151.199 2209.87 151.193C2209.87 151.186 2209.87 151.18 2209.87 151.173C2209.87 151.166 2209.87 151.16 2209.87 151.153C2209.87 151.147 2209.87 151.14 2209.87 151.133C2209.87 151.127 2209.87 151.12 2209.87 151.114C2209.87 151.107 2209.87 151.1 2209.87 151.094C2209.87 151.087 2209.87 151.081 2209.87 151.074C2209.87 151.067 2209.87 151.061 2209.87 151.054C2209.87 151.047 2209.87 151.041 2209.87 151.034C2209.87 151.028 2209.87 151.021 2209.87 151.014C2209.87 151.008 2209.87 151.001 2209.87 150.994C2209.87 150.988 2209.87 150.981 2209.87 150.974C2209.87 150.968 2209.87 150.961 2209.87 150.954C2209.87 150.948 2209.87 150.941 2209.87 150.934C2209.87 150.927 2209.87 150.921 2209.87 150.914C2209.87 150.907 2209.87 150.901 2209.87 150.894C2209.87 150.887 2209.87 150.881 2209.87 150.874C2209.87 150.867 2209.87 150.86 2209.87 150.854C2209.87 150.847 2209.87 150.84 2209.87 150.833C2209.87 150.827 2209.87 150.82 2209.87 150.813C2209.87 150.806 2209.87 150.8 2209.87 150.793C2209.87 150.786 2209.87 150.779 2209.87 150.773C2209.87 150.766 2209.87 150.759 2209.87 150.752C2209.87 150.745 2209.87 150.739 2209.87 150.732C2209.87 150.725 2209.87 150.718 2209.87 150.711C2209.87 150.705 2209.87 150.698 2209.87 150.691C2209.87 150.684 2209.87 150.677 2209.87 150.671C2209.87 150.664 2209.87 150.657 2209.87 150.65C2209.87 150.643 2209.87 150.636 2209.87 150.63C2209.87 150.623 2209.87 150.616 2209.87 150.609C2209.87 150.602 2209.87 150.595 2209.87 150.589C2209.87 150.582 2209.87 150.575 2209.87 150.568C2209.87 150.561 2209.87 150.554 2209.87 150.547C2209.87 150.54 2209.87 150.534 2209.87 150.527C2209.87 150.52 2209.87 150.513 2209.87 150.506C2209.87 150.499 2209.87 150.492 2209.87 150.485C2209.87 150.478 2209.87 150.471 2209.87 150.464C2209.87 150.458 2209.87 150.451 2209.87 150.444C2209.87 150.437 2209.87 150.43 2209.87 150.423C2209.87 150.416 2209.87 150.409 2209.87 150.402C2209.87 150.395 2209.87 150.388 2209.87 150.381C2209.87 150.374 2209.87 150.367 2209.87 150.36C2209.87 150.353 2209.87 150.346 2209.87 150.339C2209.87 150.332 2209.87 150.325 2209.87 150.318C2209.87 150.311 2209.87 150.304 2209.87 150.297C2209.87 150.29 2209.87 150.283 2209.87 150.276C2209.87 150.269 2209.87 150.262 2209.87 150.255C2209.87 150.248 2209.87 150.241 2209.87 150.234C2209.87 150.227 2209.87 150.22 2209.87 150.213C2209.87 150.206 2209.87 150.199 2209.87 150.192C2209.87 150.185 2209.87 150.178 2209.87 150.171C2209.87 150.164 2209.87 150.157 2209.87 150.15C2209.87 150.143 2209.87 150.135 2209.87 150.128C2209.87 150.121 2209.87 150.114 2209.87 150.107C2209.87 150.1 2209.87 150.093 2209.87 150.086C2209.87 150.079 2209.87 150.072 2209.87 150.065C2209.87 150.057 2209.87 150.05 2209.87 150.043C2209.87 150.036 2209.87 150.029 2209.87 150.022C2209.87 150.015 2209.87 150.008 2209.87 150C2209.87 149.993 2209.87 149.986 2209.87 149.979C2209.87 149.972 2209.87 149.965 2209.87 149.957C2209.87 149.95 2209.87 149.943 2209.87 149.936C2209.87 149.929 2209.87 149.922 2209.87 149.914C2209.87 149.907 2209.87 149.9 2209.87 149.893C2209.87 149.886 2209.87 149.878 2209.87 149.871C2209.87 149.864 2209.87 149.857 2209.87 149.85C2209.87 149.842 2209.87 149.835 2209.87 149.828C2209.87 149.821 2209.87 149.814 2209.87 149.806C2209.87 149.799 2209.87 149.792 2209.87 149.785C2209.87 149.777 2209.87 149.77 2209.87 149.763C2209.87 149.756 2209.87 149.748 2209.87 149.741C2209.87 149.734 2209.87 149.727 2209.87 149.719C2209.87 149.712 2209.87 149.705 2209.87 149.698C2209.87 149.69 2209.87 149.683 2209.87 149.676C2209.87 149.668 2209.87 149.661 2209.87 149.654C2209.87 149.646 2209.87 149.639 2209.87 149.632C2209.87 149.625 2209.87 149.617 2209.87 149.61C2209.87 149.603 2209.87 149.595 2209.87 149.588C2209.87 149.581 2209.87 149.573 2209.87 149.566H2199.87C2199.87 149.573 2199.87 149.581 2199.87 149.588C2199.87 149.595 2199.87 149.603 2199.87 149.61C2199.87 149.617 2199.87 149.625 2199.87 149.632C2199.87 149.639 2199.87 149.646 2199.87 149.654C2199.87 149.661 2199.87 149.668 2199.87 149.676C2199.87 149.683 2199.87 149.69 2199.87 149.698C2199.87 149.705 2199.87 149.712 2199.87 149.719C2199.87 149.727 2199.87 149.734 2199.87 149.741C2199.87 149.748 2199.87 149.756 2199.87 149.763C2199.87 149.77 2199.87 149.777 2199.87 149.785C2199.87 149.792 2199.87 149.799 2199.87 149.806C2199.87 149.814 2199.87 149.821 2199.87 149.828C2199.87 149.835 2199.87 149.842 2199.87 149.85C2199.87 149.857 2199.87 149.864 2199.87 149.871C2199.87 149.878 2199.87 149.886 2199.87 149.893C2199.87 149.9 2199.87 149.907 2199.87 149.914C2199.87 149.922 2199.87 149.929 2199.87 149.936C2199.87 149.943 2199.87 149.95 2199.87 149.957C2199.87 149.965 2199.87 149.972 2199.87 149.979C2199.87 149.986 2199.87 149.993 2199.87 150C2199.87 150.008 2199.87 150.015 2199.87 150.022C2199.87 150.029 2199.87 150.036 2199.87 150.043C2199.87 150.05 2199.87 150.057 2199.87 150.065C2199.87 150.072 2199.87 150.079 2199.87 150.086C2199.87 150.093 2199.87 150.1 2199.87 150.107C2199.87 150.114 2199.87 150.121 2199.87 150.128C2199.87 150.135 2199.87 150.143 2199.87 150.15C2199.87 150.157 2199.87 150.164 2199.87 150.171C2199.87 150.178 2199.87 150.185 2199.87 150.192C2199.87 150.199 2199.87 150.206 2199.87 150.213C2199.87 150.22 2199.87 150.227 2199.87 150.234C2199.87 150.241 2199.87 150.248 2199.87 150.255C2199.87 150.262 2199.87 150.269 2199.87 150.276C2199.87 150.283 2199.87 150.29 2199.87 150.297C2199.87 150.304 2199.87 150.311 2199.87 150.318C2199.87 150.325 2199.87 150.332 2199.87 150.339C2199.87 150.346 2199.87 150.353 2199.87 150.36C2199.87 150.367 2199.87 150.374 2199.87 150.381C2199.87 150.388 2199.87 150.395 2199.87 150.402C2199.87 150.409 2199.87 150.416 2199.87 150.423C2199.87 150.43 2199.87 150.437 2199.87 150.444C2199.87 150.451 2199.87 150.458 2199.87 150.464C2199.87 150.471 2199.87 150.478 2199.87 150.485C2199.87 150.492 2199.87 150.499 2199.87 150.506C2199.87 150.513 2199.87 150.52 2199.87 150.527C2199.87 150.534 2199.87 150.54 2199.87 150.547C2199.87 150.554 2199.87 150.561 2199.87 150.568C2199.87 150.575 2199.87 150.582 2199.87 150.589C2199.87 150.595 2199.87 150.602 2199.87 150.609C2199.87 150.616 2199.87 150.623 2199.87 150.63C2199.87 150.636 2199.87 150.643 2199.87 150.65C2199.87 150.657 2199.87 150.664 2199.87 150.671C2199.87 150.677 2199.87 150.684 2199.87 150.691C2199.87 150.698 2199.87 150.705 2199.87 150.711C2199.87 150.718 2199.87 150.725 2199.87 150.732C2199.87 150.739 2199.87 150.745 2199.87 150.752C2199.87 150.759 2199.87 150.766 2199.87 150.773C2199.87 150.779 2199.87 150.786 2199.87 150.793C2199.87 150.8 2199.87 150.806 2199.87 150.813C2199.87 150.82 2199.87 150.827 2199.87 150.833C2199.87 150.84 2199.87 150.847 2199.87 150.854C2199.87 150.86 2199.87 150.867 2199.87 150.874C2199.87 150.881 2199.87 150.887 2199.87 150.894C2199.87 150.901 2199.87 150.907 2199.87 150.914C2199.87 150.921 2199.87 150.927 2199.87 150.934C2199.87 150.941 2199.87 150.948 2199.87 150.954C2199.87 150.961 2199.87 150.968 2199.87 150.974C2199.87 150.981 2199.87 150.988 2199.87 150.994C2199.87 151.001 2199.87 151.008 2199.87 151.014C2199.87 151.021 2199.87 151.028 2199.87 151.034C2199.87 151.041 2199.87 151.047 2199.87 151.054C2199.87 151.061 2199.87 151.067 2199.87 151.074C2199.87 151.081 2199.87 151.087 2199.87 151.094C2199.87 151.1 2199.87 151.107 2199.87 151.114C2199.87 151.12 2199.87 151.127 2199.87 151.133C2199.87 151.14 2199.87 151.147 2199.87 151.153C2199.87 151.16 2199.87 151.166 2199.87 151.173C2199.87 151.18 2199.87 151.186 2199.87 151.193C2199.87 151.199 2199.87 151.206 2199.87 151.212C2199.87 151.219 2199.87 151.225 2199.87 151.232C2199.87 151.238 2199.87 151.245 2199.87 151.252C2199.87 151.258 2199.87 151.265 2199.87 151.271C2199.87 151.278 2199.87 151.284 2199.87 151.291C2199.87 151.297 2199.87 151.304 2199.87 151.31C2199.87 151.317 2199.87 151.323 2199.87 151.33C2199.87 151.336 2199.87 151.343 2199.87 151.349C2199.87 151.356 2199.87 151.362 2199.87 151.369C2199.87 151.375 2199.87 151.382 2199.87 151.388C2199.87 151.394 2199.87 151.401 2199.87 151.407C2199.87 151.414 2199.87 151.42 2199.87 151.427C2199.87 151.433 2199.87 151.44 2199.87 151.446C2199.87 151.452 2199.87 151.459 2199.87 151.465C2199.87 151.472 2199.87 151.478 2199.87 151.485C2199.87 151.491 2199.87 151.497 2199.87 151.504C2199.87 151.51 2199.87 151.517 2199.87 151.523C2199.87 151.529 2199.87 151.536 2199.87 151.542C2199.87 151.549 2199.87 151.555 2199.87 151.561C2199.87 151.568 2199.87 151.574 2199.87 151.58C2199.87 151.587 2199.87 151.593 2199.87 151.599C2199.87 151.606 2199.87 151.612 2199.87 151.619C2199.87 151.625 2199.87 151.631 2199.87 151.638C2199.87 151.644 2199.87 151.65 2199.87 151.657C2199.87 151.663 2199.87 151.669 2199.87 151.675C2199.87 151.682 2199.87 151.688 2199.87 151.694C2199.87 151.701 2199.87 151.707 2199.87 151.713C2199.87 151.72 2199.87 151.726 2199.87 151.732C2199.87 151.738 2199.87 151.745 2199.87 151.751C2199.87 151.757 2199.87 151.764 2199.87 151.77C2199.87 151.776 2199.87 151.782 2199.87 151.789C2199.87 151.795 2199.87 151.801 2199.87 151.807C2199.87 151.814 2199.87 151.82 2199.87 151.826C2199.87 151.832 2199.87 151.839 2199.87 151.845C2199.87 151.851 2199.87 151.857 2199.87 151.863C2199.87 151.87 2199.87 151.876 2199.87 151.882C2199.87 151.888 2199.87 151.894 2199.87 151.901C2199.87 151.907 2199.87 151.913 2199.87 151.919C2199.87 151.925 2199.87 151.932 2199.87 151.938C2199.87 151.944 2199.87 151.95 2199.87 151.956C2199.87 151.962 2199.87 151.969 2199.87 151.975C2199.87 151.981 2199.87 151.987 2199.87 151.993C2199.87 151.999 2199.87 152.005 2199.87 152.012C2199.87 152.018 2199.87 152.024 2199.87 152.03C2199.87 152.036 2199.87 152.042 2199.87 152.048C2199.87 152.054 2199.87 152.061 2199.87 152.067C2199.87 152.073 2199.87 152.079 2199.87 152.085C2199.87 152.091 2199.87 152.097 2199.87 152.103C2199.87 152.109 2199.87 152.115 2199.87 152.121C2199.87 152.128 2199.87 152.134 2199.87 152.14C2199.87 152.146 2199.87 152.152 2199.87 152.158C2199.87 152.164 2199.87 152.17 2199.87 152.176C2199.87 152.182 2199.87 152.188 2199.87 152.194C2199.87 152.2 2199.87 152.206 2199.87 152.212C2199.87 152.218 2199.87 152.224 2199.87 152.23C2199.87 152.236 2199.87 152.242 2199.87 152.248C2199.87 152.254 2199.87 152.26 2199.87 152.266C2199.87 152.272 2199.87 152.278 2199.87 152.284C2199.87 152.29 2199.87 152.296 2199.87 152.302C2199.87 152.308 2199.87 152.314 2199.87 152.32C2199.87 152.326 2199.87 152.332 2199.87 152.338C2199.87 152.344 2199.87 152.35 2199.87 152.356C2199.87 152.362 2199.87 152.368 2199.87 152.374C2199.87 152.38 2199.87 152.385 2199.87 152.391C2199.87 152.397 2199.87 152.403 2199.87 152.409C2199.87 152.415 2199.87 152.421 2199.87 152.427C2199.87 152.433 2199.87 152.439 2199.87 152.445C2199.87 152.45 2199.87 152.456 2199.87 152.462C2199.87 152.468 2199.87 152.474 2199.87 152.48C2199.87 152.486 2199.87 152.492 2199.87 152.498C2199.87 152.503 2199.87 152.509 2199.87 152.515C2199.87 152.521 2199.87 152.527 2199.87 152.533C2199.87 152.538 2199.87 152.544 2199.87 152.55C2199.87 152.556 2199.87 152.562 2199.87 152.568C2199.87 152.573 2199.87 152.579 2199.87 152.585C2199.87 152.591 2199.87 152.597 2199.87 152.603C2199.87 152.608 2199.87 152.614 2199.87 152.62C2199.87 152.626 2199.87 152.632 2199.87 152.637C2199.87 152.643 2199.87 152.649 2199.87 152.655C2199.87 152.66 2199.87 152.666 2199.87 152.672C2199.87 152.678 2199.87 152.683 2199.87 152.689C2199.87 152.695 2199.87 152.701 2199.87 152.706C2199.87 152.712 2199.87 152.718 2199.87 152.724C2199.87 152.729 2199.87 152.735 2199.87 152.741C2199.87 152.747 2199.87 152.752 2199.87 152.758C2199.87 152.764 2199.87 152.769 2199.87 152.775C2199.87 152.781 2199.87 152.787 2199.87 152.792C2199.87 152.798 2199.87 152.804 2199.87 152.809C2199.87 152.815 2199.87 152.821 2199.87 152.826C2199.87 152.832 2199.87 152.838 2199.87 152.843C2199.87 152.849 2199.87 152.855 2199.87 152.86C2199.87 152.866 2199.87 152.872 2199.87 152.877C2199.87 152.883 2199.87 152.889 2199.87 152.894C2199.87 152.9 2199.87 152.906 2199.87 152.911C2199.87 152.917 2199.87 152.922 2199.87 152.928C2199.87 152.934 2199.87 152.939 2199.87 152.945C2199.87 152.95 2199.87 152.956 2199.87 152.962C2199.87 152.967 2199.87 152.973 2199.87 152.978C2199.87 152.984 2199.87 152.99 2199.87 152.995C2199.87 153.001 2199.87 153.006 2199.87 153.012C2199.87 153.017 2199.87 153.023 2199.87 153.029C2199.87 153.034 2199.87 153.04 2199.87 153.045C2199.87 153.051 2199.87 153.056 2199.87 153.062C2199.87 153.067 2199.87 153.073 2199.87 153.078C2199.87 153.084 2199.87 153.089 2199.87 153.095C2199.87 153.1 2199.87 153.106 2199.87 153.111C2199.87 153.117 2199.87 153.123 2199.87 153.128C2199.87 153.133 2199.87 153.139 2199.87 153.144C2199.87 153.15 2199.87 153.155 2199.87 153.161C2199.87 153.166 2199.87 153.172 2199.87 153.177C2199.87 153.183 2199.87 153.188 2199.87 153.194C2199.87 153.199 2199.87 153.205 2199.87 153.21C2199.87 153.216 2199.87 153.221 2199.87 153.226C2199.87 153.232 2199.87 153.237 2199.87 153.243C2199.87 153.248 2199.87 153.254 2199.87 153.259C2199.87 153.264 2199.87 153.27 2199.87 153.275C2199.87 153.281 2199.87 153.286 2199.87 153.291C2199.87 153.297 2199.87 153.302 2199.87 153.308C2199.87 153.313 2199.87 153.318 2199.87 153.324C2199.87 153.329 2199.87 153.334 2199.87 153.34C2199.87 153.345 2199.87 153.351 2199.87 153.356C2199.87 153.361 2199.87 153.367 2199.87 153.372C2199.87 153.377 2199.87 153.383 2199.87 153.388C2199.87 153.393 2199.87 153.399 2199.87 153.404C2199.87 153.409 2199.87 153.415 2199.87 153.42C2199.87 153.425 2199.87 153.431 2199.87 153.436C2199.87 153.441 2199.87 153.446 2199.87 153.452C2199.87 153.457 2199.87 153.462 2199.87 153.468C2199.87 153.473 2199.87 153.478 2199.87 153.483C2199.87 153.489 2199.87 153.494 2199.87 153.499C2199.87 153.505 2199.87 153.51 2199.87 153.515C2199.87 153.52 2199.87 153.526 2199.87 153.531C2199.87 153.536 2199.87 153.541 2199.87 153.547C2199.87 153.552 2199.87 153.557 2199.87 153.562C2199.87 153.567 2199.87 153.573 2199.87 153.578C2199.87 153.583 2199.87 153.588 2199.87 153.594C2199.87 153.599 2199.87 153.604 2199.87 153.609C2199.87 153.614 2199.87 153.62 2199.87 153.625C2199.87 153.63 2199.87 153.635 2199.87 153.64C2199.87 153.645 2199.87 153.651 2199.87 153.656C2199.87 153.661 2199.87 153.666 2199.87 153.671C2199.87 153.676 2199.87 153.682 2199.87 153.687C2199.87 153.692 2199.87 153.697 2199.87 153.702C2199.87 153.707 2199.87 153.712 2199.87 153.718C2199.87 153.723 2199.87 153.728 2199.87 153.733C2199.87 153.738 2199.87 153.743 2199.87 153.748C2199.87 153.753 2199.87 153.758 2199.87 153.764C2199.87 153.769 2199.87 153.774 2199.87 153.779C2199.87 153.784 2199.87 153.789 2199.87 153.794C2199.87 153.799 2199.87 153.804 2199.87 153.809C2199.87 153.814 2199.87 153.819 2199.87 153.824C2199.87 153.83 2199.87 153.835 2199.87 153.84C2199.87 153.845 2199.87 153.85 2199.87 153.855C2199.87 153.86 2199.87 153.865 2199.87 153.87C2199.87 153.875 2199.87 153.88 2199.87 153.885C2199.87 153.89 2199.87 153.895 2199.87 153.9C2199.87 153.905 2199.87 153.91 2199.87 153.915C2199.87 153.92 2199.87 153.925 2199.87 153.93C2199.87 153.935 2199.87 153.94 2199.87 153.945C2199.87 153.95 2199.87 153.955 2199.87 153.96C2199.87 153.965 2199.87 153.97 2199.87 153.975C2199.87 153.98 2199.87 153.985 2199.87 153.99C2199.87 153.994 2199.87 153.999 2199.87 154.004C2199.87 154.009 2199.87 154.014 2199.87 154.019C2199.87 154.024 2199.87 154.029 2199.87 154.034C2199.87 154.039 2199.87 154.044 2199.87 154.049C2199.87 154.054 2199.87 154.058 2199.87 154.063C2199.87 154.068 2199.87 154.073 2199.87 154.078C2199.87 154.083 2199.87 154.088 2199.87 154.093C2199.87 154.098 2199.87 154.102 2199.87 154.107C2199.87 154.112 2199.87 154.117 2199.87 154.122C2199.87 154.127 2199.87 154.132 2199.87 154.136C2199.87 154.141 2199.87 154.146 2199.87 154.151C2199.87 154.156 2199.87 154.161 2199.87 154.165C2199.87 154.17 2199.87 154.175 2199.87 154.18C2199.87 154.185 2199.87 154.19 2199.87 154.194C2199.87 154.199 2199.87 154.204 2199.87 154.209C2199.87 154.214 2199.87 154.218 2199.87 154.223C2199.87 154.228 2199.87 154.233 2199.87 154.237C2199.87 154.242 2199.87 154.247 2199.87 154.252C2199.87 154.257 2199.87 154.261 2199.87 154.266C2199.87 154.271 2199.87 154.276 2199.87 154.28C2199.87 154.285 2199.87 154.29 2199.87 154.295C2199.87 154.299 2199.87 154.304 2199.87 154.309C2199.87 154.314 2199.87 154.318 2199.87 154.323C2199.87 154.328 2199.87 154.332 2199.87 154.337C2199.87 154.342 2199.87 154.346 2199.87 154.351C2199.87 154.356 2199.87 154.361 2199.87 154.365C2199.87 154.37 2199.87 154.375 2199.87 154.379C2199.87 154.384 2199.87 154.389 2199.87 154.393C2199.87 154.398 2199.87 154.403 2199.87 154.407C2199.87 154.412 2199.87 154.417 2199.87 154.421C2199.87 154.426 2199.87 154.431 2199.87 154.435C2199.87 154.44 2199.87 154.444 2199.87 154.449C2199.87 154.454 2199.87 154.458 2199.87 154.463C2199.87 154.468 2199.87 154.472 2199.87 154.477C2199.87 154.481 2199.87 154.486 2199.87 154.491C2199.87 154.495 2199.87 154.5 2199.87 154.504C2199.87 154.509 2199.87 154.514 2199.87 154.518C2199.87 154.523 2199.87 154.527 2199.87 154.532C2199.87 154.536 2199.87 154.541 2199.87 154.546C2199.87 154.55 2199.87 154.555 2199.87 154.559C2199.87 154.564 2199.87 154.568 2199.87 154.573C2199.87 154.577 2199.87 154.582 2199.87 154.586C2199.87 154.591 2199.87 154.596 2199.87 154.6C2199.87 154.605 2199.87 154.609 2199.87 154.614C2199.87 154.618 2199.87 154.623 2199.87 154.627C2199.87 154.632 2199.87 154.636 2199.87 154.641C2199.87 154.645 2199.87 154.65 2199.87 154.654C2199.87 154.658 2199.87 154.663 2199.87 154.667C2199.87 154.672 2199.87 154.676 2199.87 154.681C2199.87 154.685 2199.87 154.69 2199.87 154.694C2199.87 154.699 2199.87 154.703 2199.87 154.707C2199.87 154.712 2199.87 154.716 2199.87 154.721C2199.87 154.725 2199.87 154.73 2199.87 154.734C2199.87 154.738 2199.87 154.743 2199.87 154.747C2199.87 154.752 2199.87 154.756 2199.87 154.761C2199.87 154.765 2199.87 154.769 2199.87 154.774C2199.87 154.778 2199.87 154.782 2199.87 154.787C2199.87 154.791 2199.87 154.796 2199.87 154.8C2199.87 154.804 2199.87 154.809 2199.87 154.813C2199.87 154.817 2199.87 154.822 2199.87 154.826C2199.87 154.83 2199.87 154.835 2199.87 154.839C2199.87 154.843 2199.87 154.848 2199.87 154.852C2199.87 154.856 2199.87 154.861 2199.87 154.865C2199.87 154.869 2199.87 154.874 2199.87 154.878C2199.87 154.882 2199.87 154.887 2199.87 154.891C2199.87 154.895 2199.87 154.9 2199.87 154.904C2199.87 154.908 2199.87 154.912 2199.87 154.917C2199.87 154.921 2199.87 154.925 2199.87 154.93C2199.87 154.934 2199.87 154.938 2199.87 154.942C2199.87 154.947 2199.87 154.951 2199.87 154.955C2199.87 154.959 2199.87 154.964 2199.87 154.968C2199.87 154.972 2199.87 154.976 2199.87 154.981C2199.87 154.985 2199.87 154.989 2199.87 154.993C2199.87 154.997 2199.87 155.002 2199.87 155.006C2199.87 155.01 2199.87 155.014 2199.87 155.018C2199.87 155.023 2199.87 155.027 2199.87 155.031C2199.87 155.035 2199.87 155.039 2199.87 155.044C2199.87 155.048 2199.87 155.052 2199.87 155.056C2199.87 155.06 2199.87 155.064 2199.87 155.069C2199.87 155.073 2199.87 155.077 2199.87 155.081C2199.87 155.085 2199.87 155.089 2199.87 155.093C2199.87 155.098 2199.87 155.102 2199.87 155.106C2199.87 155.11 2199.87 155.114 2199.87 155.118C2199.87 155.122 2199.87 155.126 2199.87 155.131C2199.87 155.135 2199.87 155.139 2199.87 155.143C2199.87 155.147 2199.87 155.151 2199.87 155.155C2199.87 155.159 2199.87 155.163 2199.87 155.167C2199.87 155.172 2199.87 155.176 2199.87 155.18C2199.87 155.184 2199.87 155.188 2199.87 155.192C2199.87 155.196 2199.87 155.2 2199.87 155.204C2199.87 155.208 2199.87 155.212 2199.87 155.216C2199.87 155.22 2199.87 155.224 2199.87 155.228C2199.87 155.232 2199.87 155.236 2199.87 155.24C2199.87 155.244 2199.87 155.248 2199.87 155.252C2199.87 155.256 2199.87 155.26 2199.87 155.264C2199.87 155.268 2199.87 155.272 2199.87 155.276C2199.87 155.28 2199.87 155.284 2199.87 155.288C2199.87 155.292 2199.87 155.296 2199.87 155.3C2199.87 155.304 2199.87 155.308 2199.87 155.312C2199.87 155.316 2199.87 155.32 2199.87 155.324C2199.87 155.328 2199.87 155.332 2199.87 155.336C2199.87 155.34 2199.87 155.344 2199.87 155.348C2199.87 155.352 2199.87 155.356 2199.87 155.359C2199.87 155.363 2199.87 155.367 2199.87 155.371C2199.87 155.375 2199.87 155.379 2199.87 155.383C2199.87 155.387 2199.87 155.391 2199.87 155.395C2199.87 155.398 2199.87 155.402 2199.87 155.406C2199.87 155.41 2199.87 155.414 2199.87 155.418C2199.87 155.422 2199.87 155.426 2199.87 155.429C2199.87 155.433 2199.87 155.437 2199.87 155.441C2199.87 155.445 2199.87 155.449 2199.87 155.453C2199.87 155.456 2199.87 155.46 2199.87 155.464C2199.87 155.468 2199.87 155.472 2199.87 155.476C2199.87 155.479 2199.87 155.483 2199.87 155.487C2199.87 155.491 2199.87 155.495 2199.87 155.498C2199.87 155.502 2199.87 155.506 2199.87 155.51C2199.87 155.514 2199.87 155.517 2199.87 155.521C2199.87 155.525 2199.87 155.529 2199.87 155.532C2199.87 155.536 2199.87 155.54 2199.87 155.544C2199.87 155.548 2199.87 155.551 2199.87 155.555C2199.87 155.559 2199.87 155.563 2199.87 155.566C2199.87 155.57 2199.87 155.574 2199.87 155.577C2199.87 155.581 2199.87 155.585 2199.87 155.589C2199.87 155.592 2199.87 155.596 2199.87 155.6C2199.87 155.603 2199.87 155.607 2199.87 155.611C2199.87 155.615 2199.87 155.618 2199.87 155.622C2199.87 155.626 2199.87 155.629 2199.87 155.633C2199.87 155.637 2199.87 155.64 2199.87 155.644C2199.87 155.648 2199.87 155.651 2199.87 155.655C2199.87 155.659 2199.87 155.662 2199.87 155.666C2199.87 155.67 2199.87 155.673 2199.87 155.677C2199.87 155.681 2199.87 155.684 2199.87 155.688C2199.87 155.691 2199.87 155.695 2199.87 155.699C2199.87 155.702 2199.87 155.706 2199.87 155.71C2199.87 155.713 2199.87 155.717 2199.87 155.72C2199.87 155.724 2199.87 155.728 2199.87 155.731C2199.87 155.735 2199.87 155.738 2199.87 155.742C2199.87 155.746 2199.87 155.749 2199.87 155.753C2199.87 155.756 2199.87 155.76 2199.87 155.763C2199.87 155.767 2199.87 155.77 2199.87 155.774C2199.87 155.778 2199.87 155.781 2199.87 155.785C2199.87 155.788 2199.87 155.792 2199.87 155.795C2199.87 155.799 2199.87 155.802 2199.87 155.806C2199.87 155.809 2199.87 155.813 2199.87 155.816C2199.87 155.82 2199.87 155.823 2199.87 155.827C2199.87 155.83 2199.87 155.834 2199.87 155.837C2199.87 155.841 2199.87 155.844 2199.87 155.848C2199.87 155.851 2199.87 155.855 2199.87 155.858C2199.87 155.862 2199.87 155.865 2199.87 155.869C2199.87 155.872 2199.87 155.876 2199.87 155.879C2199.87 155.883 2199.87 155.886 2199.87 155.889C2199.87 155.893 2199.87 155.896 2199.87 155.9C2199.87 155.903 2199.87 155.907 2199.87 155.91C2199.87 155.913 2199.87 155.917 2199.87 155.92C2199.87 155.924 2199.87 155.927 2199.87 155.93C2199.87 155.934 2199.87 155.937 2199.87 155.941C2199.87 155.944 2199.87 155.947 2199.87 155.951C2199.87 155.954 2199.87 155.958 2199.87 155.961C2199.87 155.964 2199.87 155.968 2199.87 155.971C2199.87 155.974 2199.87 155.978 2199.87 155.981C2199.87 155.984 2199.87 155.988 2199.87 155.991C2199.87 155.994 2199.87 155.998 2199.87 156.001C2199.87 156.004 2199.87 156.008 2199.87 156.011C2199.87 156.014 2199.87 156.018 2199.87 156.021C2199.87 156.024 2199.87 156.028 2199.87 156.031C2199.87 156.034 2199.87 156.038 2199.87 156.041C2199.87 156.044 2199.87 156.047 2199.87 156.051C2199.87 156.054 2199.87 156.057 2199.87 156.061C2199.87 156.064 2199.87 156.067 2199.87 156.07C2199.87 156.074 2199.87 156.077 2199.87 156.08C2199.87 156.083 2199.87 156.087 2199.87 156.09C2199.87 156.093 2199.87 156.096 2199.87 156.1C2199.87 156.103 2199.87 156.106 2199.87 156.109C2199.87 156.112 2199.87 156.116 2199.87 156.119C2199.87 156.122 2199.87 156.125 2199.87 156.129C2199.87 156.132 2199.87 156.135 2199.87 156.138C2199.87 156.141 2199.87 156.145 2199.87 156.148C2199.87 156.151 2199.87 156.154 2199.87 156.157C2199.87 156.16 2199.87 156.164 2199.87 156.167C2199.87 156.17 2199.87 156.173 2199.87 156.176C2199.87 156.179 2199.87 156.182 2199.87 156.186C2199.87 156.189 2199.87 156.192 2199.87 156.195C2199.87 156.198 2199.87 156.201 2199.87 156.204C2199.87 156.208 2199.87 156.211 2199.87 156.214C2199.87 156.217 2199.87 156.22 2199.87 156.223C2199.87 156.226 2199.87 156.229 2199.87 156.232C2199.87 156.235 2199.87 156.239 2199.87 156.242C2199.87 156.245 2199.87 156.248 2199.87 156.251C2199.87 156.254 2199.87 156.257 2199.87 156.26C2199.87 156.263 2199.87 156.266 2199.87 156.269C2199.87 156.272 2199.87 156.275 2199.87 156.278C2199.87 156.281 2199.87 156.284 2199.87 156.287C2199.87 156.291 2199.87 156.294 2199.87 156.297C2199.87 156.3 2199.87 156.303 2199.87 156.306C2199.87 156.309 2199.87 156.312 2199.87 156.315C2199.87 156.318 2199.87 156.321 2199.87 156.324C2199.87 156.327 2199.87 156.33 2199.87 156.333C2199.87 156.336 2199.87 156.339 2199.87 156.342C2199.87 156.345 2199.87 156.347 2199.87 156.35C2199.87 156.353 2199.87 156.356 2199.87 156.359C2199.87 156.362 2199.87 156.365 2199.87 156.368C2199.87 156.371 2199.87 156.374 2199.87 156.377C2199.87 156.38 2199.87 156.383 2199.87 156.386C2199.87 156.389 2199.87 156.392 2199.87 156.394C2199.87 156.397 2199.87 156.4 2199.87 156.403C2199.87 156.406 2199.87 156.409 2199.87 156.412C2199.87 156.415 2199.87 156.418 2199.87 156.421C2199.87 156.423 2199.87 156.426 2199.87 156.429C2199.87 156.432 2199.87 156.435 2199.87 156.438C2199.87 156.441 2199.87 156.444 2199.87 156.446C2199.87 156.449 2199.87 156.452 2199.87 156.455C2199.87 156.458 2199.87 156.461 2199.87 156.463C2199.87 156.466 2199.87 156.469 2199.87 156.472C2199.87 156.475 2199.87 156.478 2199.87 156.48C2199.87 156.483 2199.87 156.486 2199.87 156.489C2199.87 156.492 2199.87 156.494 2199.87 156.497C2199.87 156.5 2199.87 156.503 2199.87 156.506C2199.87 156.508 2199.87 156.511 2199.87 156.514C2199.87 156.517 2199.87 156.519 2199.87 156.522C2199.87 156.525 2199.87 156.528 2199.87 156.53C2199.87 156.533 2199.87 156.536 2199.87 156.539C2199.87 156.541 2199.87 156.544 2199.87 156.547C2199.87 156.55 2199.87 156.552 2199.87 156.555C2199.87 156.558 2199.87 156.561 2199.87 156.563C2199.87 156.566 2199.87 156.569 2199.87 156.571C2199.87 156.574 2199.87 156.577 2199.87 156.579C2199.87 156.582 2199.87 156.585 2199.87 156.588C2199.87 156.59 2199.87 156.593 2199.87 156.596C2199.87 156.598 2199.87 156.601 2199.87 156.604C2199.87 156.606 2199.87 156.609 2199.87 156.612C2199.87 156.614 2199.87 156.617 2199.87 156.619C2199.87 156.622 2199.87 156.625 2199.87 156.627C2199.87 156.63 2199.87 156.633 2199.87 156.635C2199.87 156.638 2199.87 156.641 2199.87 156.643C2199.87 156.646 2199.87 156.648 2199.87 156.651C2199.87 156.654 2199.87 156.656 2199.87 156.659C2199.87 156.661 2199.87 156.664 2199.87 156.667C2199.87 156.669 2199.87 156.672 2199.87 156.674C2199.87 156.677 2199.87 156.679 2199.87 156.682C2199.87 156.685 2199.87 156.687 2199.87 156.69C2199.87 156.692 2199.87 156.695 2199.87 156.697C2199.87 156.7 2199.87 156.702 2199.87 156.705C2199.87 156.707 2199.87 156.71 2199.87 156.712C2199.87 156.715 2199.87 156.718 2199.87 156.72C2199.87 156.723 2199.87 156.725 2199.87 156.728C2199.87 156.73 2199.87 156.733 2199.87 156.735C2199.87 156.738 2199.87 156.74 2199.87 156.743C2199.87 156.745 2199.87 156.747 2199.87 156.75C2199.87 156.752 2199.87 156.755 2199.87 156.757C2199.87 156.76 2199.87 156.762 2199.87 156.765C2199.87 156.767 2199.87 156.77 2199.87 156.772C2199.87 156.775 2199.87 156.777 2199.87 156.779C2199.87 156.782 2199.87 156.784 2199.87 156.787C2199.87 156.789 2199.87 156.792 2199.87 156.794C2199.87 156.796 2199.87 156.799 2199.87 156.801C2199.87 156.804 2199.87 156.806 2199.87 156.808C2199.87 156.811 2199.87 156.813 2199.87 156.816C2199.87 156.818 2199.87 156.82 2199.87 156.823C2199.87 156.825 2199.87 156.827 2199.87 156.83C2199.87 156.832 2199.87 156.834 2199.87 156.837C2199.87 156.839 2199.87 156.842 2199.87 156.844C2199.87 156.846 2199.87 156.849 2199.87 156.851C2199.87 156.853 2199.87 156.856 2199.87 156.858C2199.87 156.86 2199.87 156.863 2199.87 156.865C2199.87 156.867 2199.87 156.869 2199.87 156.872C2199.87 156.874 2199.87 156.876 2199.87 156.879C2199.87 156.881 2199.87 156.883 2199.87 156.886C2199.87 156.888 2199.87 156.89 2199.87 156.892C2199.87 156.895 2199.87 156.897 2199.87 156.899C2199.87 156.901 2199.87 156.904 2199.87 156.906C2199.87 156.908 2199.87 156.91 2199.87 156.913C2199.87 156.915 2199.87 156.917 2199.87 156.919H2209.87ZM2209.87 149.672C2209.95 145.789 2209.99 141.381 2209.99 136.452H2199.99C2199.99 141.328 2199.95 145.663 2199.87 149.46L2209.87 149.672ZM2209.99 136.535C2210.07 131.603 2210.11 126.469 2210.11 121.132H2200.11C2200.11 126.418 2200.07 131.496 2199.99 136.369L2209.99 136.535ZM2210.11 121.208C2210.19 115.82 2210.27 110.965 2210.36 106.642L2200.36 106.454C2200.28 110.791 2200.19 115.659 2200.11 121.057L2210.11 121.208ZM2206.18 101.616L2203.24 101.126L2201.59 110.99L2204.54 111.48L2206.18 101.616ZM2197.71 104.368L2147.09 245.31L2156.51 248.69L2207.12 107.748L2197.71 104.368ZM2151.8 242H2130.47V252H2151.8V242ZM2135.19 245.347L2086.29 105.753L2076.85 109.059L2125.76 248.653L2135.19 245.347ZM2080.78 102.469L2077.72 102.959L2079.3 112.833L2082.36 112.343L2080.78 102.469ZM2073.51 107.99C2073.59 112.314 2073.67 117.129 2073.75 122.435L2083.75 122.281C2083.67 116.966 2083.59 112.139 2083.51 107.802L2073.51 107.99ZM2073.76 122.436C2073.84 127.667 2073.92 132.734 2074 137.638L2084 137.472C2083.92 132.571 2083.84 127.507 2083.75 122.28L2073.76 122.436ZM2074 137.64C2074.08 142.44 2074.12 146.7 2074.12 150.424H2084.12C2084.12 146.631 2084.08 142.312 2084 137.47L2074 137.64ZM2074.12 150.535C2074.21 154.221 2074.24 156.617 2074.24 157.777H2084.24C2084.24 156.487 2084.2 153.98 2084.12 150.313L2074.12 150.535ZM2074.24 157.777V247H2084.24V157.777H2074.24ZM2079.24 242H2056.08V252H2079.24V242ZM2061.08 247V73.9473H2051.08V247H2061.08ZM2056.08 78.9473H2094.69V68.9473H2056.08V78.9473ZM2089.94 75.5186L2137 217.687L2146.5 214.544L2099.43 72.376L2089.94 75.5186ZM2146.47 217.771L2196.35 75.6026L2186.91 72.2919L2137.03 214.46L2146.47 217.771ZM2191.63 78.9473H2228.77V68.9473H2191.63V78.9473ZM2223.77 73.9473V247H2233.77V73.9473H2223.77ZM2228.77 242H2204.87V252H2228.77V242ZM2254.5 239.156L2249.85 237.315L2249.5 238.202V239.156H2254.5ZM2319.95 73.9473V68.9473H2316.55L2315.3 72.1058L2319.95 73.9473ZM2343.6 73.9473L2348.26 72.1325L2347.02 68.9473H2343.6V73.9473ZM2408.19 239.769H2413.19V238.83L2412.85 237.954L2408.19 239.769ZM2408.19 247V252H2413.19V247H2408.19ZM2385.03 247L2380.36 248.792L2381.59 252H2385.03V247ZM2366.4 198.467L2371.07 196.675L2369.84 193.467H2366.4V198.467ZM2294.95 198.467V193.467H2291.53L2290.29 196.655L2294.95 198.467ZM2276.07 247V252H2279.49L2280.73 248.812L2276.07 247ZM2254.5 247H2249.5V252H2254.5V247ZM2319.21 133.266L2323.9 134.998L2323.91 134.977L2323.92 134.956L2319.21 133.266ZM2302.91 177.387L2298.22 175.654L2295.74 182.387H2302.91V177.387ZM2358.68 177.387V182.387H2365.8L2363.38 175.688L2358.68 177.387ZM2342.75 133.266L2338.03 134.925L2338.04 134.945L2338.04 134.964L2342.75 133.266ZM2331.1 100.175L2335.82 98.5153L2331.15 85.2498L2326.4 98.4843L2331.1 100.175ZM2259.15 240.998L2324.6 75.7888L2315.3 72.1058L2249.85 237.315L2259.15 240.998ZM2319.95 78.9473H2343.6V68.9473H2319.95V78.9473ZM2338.94 75.762L2403.53 241.584L2412.85 237.954L2348.26 72.1325L2338.94 75.762ZM2403.19 239.769V247H2413.19V239.769H2403.19ZM2408.19 242H2385.03V252H2408.19V242ZM2389.7 245.208L2371.07 196.675L2361.73 200.259L2380.36 248.792L2389.7 245.208ZM2366.4 193.467H2294.95V203.467H2366.4V193.467ZM2290.29 196.655L2271.41 245.188L2280.73 248.812L2299.61 200.279L2290.29 196.655ZM2276.07 242H2254.5V252H2276.07V242ZM2259.5 247V239.156H2249.5V247H2259.5ZM2314.52 131.533L2298.22 175.654L2307.6 179.119L2323.9 134.998L2314.52 131.533ZM2302.91 182.387H2358.68V172.387H2302.91V182.387ZM2363.38 175.688L2347.45 131.567L2338.04 134.964L2353.98 179.085L2363.38 175.688ZM2347.46 131.606L2335.82 98.5153L2326.39 101.834L2338.03 134.925L2347.46 131.606ZM2326.4 98.4843L2314.51 131.575L2323.92 134.956L2335.81 101.865L2326.4 98.4843Z" fill="white"/>
<path d="M334.843 0L239.33 94.9953L296.013 151.678L334.852 112.839L444.012 222.526L500.173 165.848L334.843 0ZM222.009 112.312L165.848 56.1609L22.0447 199.964L0 222.004L56.6829 278.687L78.7228 256.12L151.678 183.691L165.848 169.522L222.009 225.683L275.013 278.687L331.696 222.004L278.687 168.995L222.004 112.312H222.009Z" fill="white"/>
</svg>
