<svg width="32" height="32" viewBox="0 0 32 32" fill="none" xmlns="http://www.w3.org/2000/svg">
<circle cx="16" cy="16" r="16" fill="white"/>
<path d="M15.5214 25.72C14.4988 25.72 13.6321 25.5987 12.9214 25.356C12.2281 25.1133 11.6388 24.8187 11.1534 24.472C10.6681 24.1253 10.2348 23.796 9.85344 23.484L11.9854 20.988C12.3841 21.352 12.8434 21.6987 13.3634 22.028C13.9008 22.3747 14.6028 22.548 15.4694 22.548C16.3361 22.548 17.0901 22.3227 17.7314 21.872C18.3901 21.4387 18.7194 20.7973 18.7194 19.948V18.336C18.3901 18.8733 17.8788 19.3413 17.1854 19.74C16.4921 20.1213 15.5908 20.312 14.4814 20.312C13.4588 20.312 12.5054 20.052 11.6214 19.532C10.7548 18.9947 10.0614 18.2753 9.54144 17.374C9.02144 16.4553 8.76144 15.4153 8.76144 14.254C8.76144 13.058 9.03877 12.0007 9.59344 11.082C10.1481 10.146 10.8674 9.40933 11.7514 8.872C12.6354 8.33467 13.5714 8.066 14.5594 8.066C15.5474 8.066 16.3968 8.21333 17.1074 8.508C17.8354 8.78533 18.3728 9.12333 18.7194 9.522L19.0054 8.638H22.3594V20C22.3594 21.1093 22.0474 22.0887 21.4234 22.938C20.7994 23.8047 19.9674 24.4807 18.9274 24.966C17.9048 25.4687 16.7694 25.72 15.5214 25.72ZM12.4274 14.15C12.4274 15.0513 12.7308 15.814 13.3374 16.438C13.9441 17.0447 14.6894 17.348 15.5734 17.348C17.0294 17.348 18.0781 16.776 18.7194 15.632V12.85C18.4768 12.2953 18.0781 11.8533 17.5234 11.524C16.9688 11.1947 16.3188 11.03 15.5734 11.03C14.6894 11.03 13.9441 11.3247 13.3374 11.914C12.7308 12.486 12.4274 13.2313 12.4274 14.15Z" fill="black"/>
</svg>
