<svg width="53" height="16" viewBox="0 0 53 16" fill="none" xmlns="http://www.w3.org/2000/svg">
<g clip-path="url(#clip0_251:262)">
<path fill-rule="evenodd" clip-rule="evenodd" d="M21.123 0.260742L18.4717 15.768H22.7255L25.3769 0.260742H21.123Z" fill="#EEF4F5" fill-opacity="0.6"/>
<path fill-rule="evenodd" clip-rule="evenodd" d="M33.9429 6.49258C32.457 5.79692 31.5537 5.30417 31.5537 4.57953C31.5537 3.91287 32.3404 3.2462 33.972 3.2462C35.3705 3.21721 36.3903 3.53605 37.1478 3.85489L37.5266 4.02881L38.1093 0.66649C37.2644 0.376635 35.9241 0.0288086 34.2925 0.0288086C30.0678 0.0288086 27.1251 2.11577 27.1251 5.13026C27.096 7.36214 29.2229 8.60852 30.8545 9.33316C32.5152 10.1158 33.0688 10.5795 33.0397 11.2462C33.0397 12.2897 31.7286 12.7534 30.5049 12.7534C28.815 12.7534 27.9118 12.5216 26.5132 11.9419L25.9597 11.681L25.377 15.1592C26.3676 15.594 28.2031 15.9708 30.097 15.9998C34.5547 15.9998 37.4392 13.9129 37.4974 10.6955C37.5266 8.92736 36.3903 7.59402 33.9429 6.49258Z" fill="#EEF4F5" fill-opacity="0.6"/>
<path fill-rule="evenodd" clip-rule="evenodd" d="M49.0352 0.289551H45.7428C44.7231 0.289551 43.9656 0.579406 43.4994 1.56491L37.2061 15.7968H41.6638C41.6638 15.7968 42.3922 13.8838 42.567 13.478C43.0624 13.478 47.3745 13.478 48.0154 13.478C48.132 13.9997 48.5399 15.7968 48.5399 15.7968H52.4441L49.0352 0.289551ZM43.7907 10.2606C44.1404 9.391 45.4806 5.94172 45.4806 5.94172C45.4515 5.97071 45.8303 5.04317 46.0342 4.46346L46.3256 5.7968C46.3256 5.7968 47.1414 9.50694 47.3162 10.2606H43.7907Z" fill="#EEF4F5" fill-opacity="0.6"/>
<path fill-rule="evenodd" clip-rule="evenodd" d="M14.9175 0.289728L10.7511 10.8405L10.3141 8.69552L8.79901 1.59408C8.53679 0.608568 7.8084 0.318713 6.87605 0.260742H0.0291358L0 0.608568C1.66074 1.01437 3.14667 1.59408 4.45778 2.31871L8.24543 15.768H12.7323L19.4044 0.289728H14.9175Z" fill="#EEF4F5" fill-opacity="0.6"/>
</g>
<defs>
<clipPath id="clip0_251:262">
<rect width="52.4444" height="16" fill="white"/>
</clipPath>
</defs>
</svg>
