<svg width="53" height="16" viewBox="0 0 53 16" fill="none" xmlns="http://www.w3.org/2000/svg">
<g clip-path="url(#clip0)">
<path fill-rule="evenodd" clip-rule="evenodd" d="M21.1235 0.260864L18.4721 15.7681H22.7259L25.3773 0.260864H21.1235Z" fill="#FFC32A"/>
<path fill-rule="evenodd" clip-rule="evenodd" d="M33.9432 6.49276C32.4573 5.79711 31.554 5.30435 31.554 4.57972C31.554 3.91305 32.3407 3.24638 33.9723 3.24638C35.3708 3.2174 36.3906 3.53624 37.1481 3.85508L37.5269 4.02899L38.1096 0.666673C37.2647 0.376818 35.9244 0.0289917 34.2928 0.0289917C30.0681 0.0289917 27.1254 2.11595 27.1254 5.13044C27.0963 7.36232 29.2232 8.6087 30.8548 9.33334C32.5155 10.1159 33.0691 10.5797 33.04 11.2464C33.04 12.2899 31.7289 12.7536 30.5052 12.7536C28.8153 12.7536 27.9121 12.5217 26.5136 11.942L25.96 11.6812L25.3773 15.1594C26.3679 15.5942 28.2034 15.971 30.0973 16C34.555 16 37.4395 13.913 37.4977 10.6957C37.5269 8.92754 36.3906 7.59421 33.9432 6.49276Z" fill="#FFC32A"/>
<path fill-rule="evenodd" clip-rule="evenodd" d="M49.0356 0.289856H45.7432C44.7235 0.289856 43.9659 0.579711 43.4998 1.56522L37.2064 15.7971H41.6642C41.6642 15.7971 42.3926 13.8841 42.5674 13.4783C43.0627 13.4783 47.3748 13.4783 48.0158 13.4783C48.1323 14 48.5403 15.7971 48.5403 15.7971H52.4444L49.0356 0.289856ZM43.7911 10.2609C44.1407 9.3913 45.481 5.94203 45.481 5.94203C45.4519 5.97101 45.8306 5.04348 46.0346 4.46377L46.3259 5.7971C46.3259 5.7971 47.1417 9.50725 47.3165 10.2609H43.7911Z" fill="#FFC32A"/>
<path fill-rule="evenodd" clip-rule="evenodd" d="M14.9175 0.28985L10.7511 10.8406L10.3141 8.69565L8.79901 1.5942C8.53679 0.60869 7.8084 0.318835 6.87605 0.260864H0.0291358L0 0.60869C1.66074 1.01449 3.14667 1.5942 4.45778 2.31884L8.24543 15.7681H12.7323L19.4044 0.28985H14.9175Z" fill="#FFC32A"/>
</g>
<defs>
<clipPath id="clip0">
<rect width="52.4444" height="16" fill="white"/>
</clipPath>
</defs>
</svg>
