<svg width="53" height="16" viewBox="0 0 53 16" fill="none" xmlns="http://www.w3.org/2000/svg">
<g clip-path="url(#clip0)">
<path fill-rule="evenodd" clip-rule="evenodd" d="M21.1235 0.260864L18.4722 15.7681H22.726L25.3773 0.260864H21.1235Z" fill="#2D74FF"/>
<path fill-rule="evenodd" clip-rule="evenodd" d="M33.9434 6.49276C32.4574 5.79711 31.5542 5.30435 31.5542 4.57972C31.5542 3.91305 32.3409 3.24638 33.9725 3.24638C35.371 3.2174 36.3908 3.53624 37.1483 3.85508L37.5271 4.02899L38.1098 0.666673C37.2648 0.376818 35.9246 0.0289917 34.293 0.0289917C30.0683 0.0289917 27.1256 2.11595 27.1256 5.13044C27.0965 7.36232 29.2234 8.6087 30.855 9.33334C32.5157 10.1159 33.0693 10.5797 33.0402 11.2464C33.0402 12.2899 31.729 12.7536 30.5053 12.7536C28.8155 12.7536 27.9123 12.5217 26.5137 11.942L25.9602 11.6812L25.3774 15.1594C26.3681 15.5942 28.2036 15.971 30.0974 16C34.5552 16 37.4397 13.913 37.4979 10.6957C37.5271 8.92754 36.3908 7.59421 33.9434 6.49276Z" fill="#2D74FF"/>
<path fill-rule="evenodd" clip-rule="evenodd" d="M49.0357 0.289856H45.7433C44.7236 0.289856 43.9661 0.579711 43.4999 1.56522L37.2065 15.7971H41.6643C41.6643 15.7971 42.3927 13.8841 42.5675 13.4783C43.0628 13.4783 47.3749 13.4783 48.0159 13.4783C48.1325 14 48.5404 15.7971 48.5404 15.7971H52.4446L49.0357 0.289856ZM43.7912 10.2609C44.1409 9.3913 45.4811 5.94203 45.4811 5.94203C45.452 5.97101 45.8307 5.04348 46.0347 4.46377L46.326 5.7971C46.326 5.7971 47.1419 9.50725 47.3167 10.2609H43.7912Z" fill="#2D74FF"/>
<path fill-rule="evenodd" clip-rule="evenodd" d="M14.9175 0.28985L10.7511 10.8406L10.3141 8.69565L8.79901 1.5942C8.53679 0.60869 7.8084 0.318835 6.87605 0.260864H0.0291358L0 0.60869C1.66074 1.01449 3.14667 1.5942 4.45778 2.31884L8.24543 15.7681H12.7323L19.4044 0.28985H14.9175Z" fill="#2D74FF"/>
</g>
<defs>
<clipPath id="clip0">
<rect width="52.4444" height="16" fill="white"/>
</clipPath>
</defs>
</svg>
