<svg width="53" height="16" viewBox="0 0 53 16" fill="none" xmlns="http://www.w3.org/2000/svg">
<g clip-path="url(#clip0)">
<path fill-rule="evenodd" clip-rule="evenodd" d="M21.1235 0.260864L18.4722 15.7681H22.726L25.3773 0.260864H21.1235Z" fill="#343A3B"/>
<path fill-rule="evenodd" clip-rule="evenodd" d="M33.9431 6.49276C32.4572 5.79711 31.554 5.30435 31.554 4.57972C31.554 3.91305 32.3407 3.24638 33.9723 3.24638C35.3708 3.2174 36.3905 3.53624 37.1481 3.85508L37.5268 4.02899L38.1095 0.666673C37.2646 0.376818 35.9244 0.0289917 34.2927 0.0289917C30.0681 0.0289917 27.1253 2.11595 27.1253 5.13044C27.0962 7.36232 29.2231 8.6087 30.8547 9.33334C32.5155 10.1159 33.069 10.5797 33.0399 11.2464C33.0399 12.2899 31.7288 12.7536 30.5051 12.7536C28.8152 12.7536 27.912 12.5217 26.5135 11.942L25.9599 11.6812L25.3772 15.1594C26.3678 15.5942 28.2034 15.971 30.0972 16C34.555 16 37.4394 13.913 37.4977 10.6957C37.5268 8.92754 36.3905 7.59421 33.9431 6.49276Z" fill="#343A3B"/>
<path fill-rule="evenodd" clip-rule="evenodd" d="M49.0354 0.289856H45.7431C44.7233 0.289856 43.9658 0.579711 43.4996 1.56522L37.2063 15.7971H41.6641C41.6641 15.7971 42.3925 13.8841 42.5673 13.4783C43.0626 13.4783 47.3747 13.4783 48.0157 13.4783C48.1322 14 48.5401 15.7971 48.5401 15.7971H52.4443L49.0354 0.289856ZM43.791 10.2609C44.1406 9.3913 45.4809 5.94203 45.4809 5.94203C45.4517 5.97101 45.8305 5.04348 46.0344 4.46377L46.3258 5.7971C46.3258 5.7971 47.1416 9.50725 47.3164 10.2609H43.791Z" fill="#343A3B"/>
<path fill-rule="evenodd" clip-rule="evenodd" d="M14.9175 0.28985L10.7511 10.8406L10.3141 8.69565L8.79901 1.5942C8.53679 0.60869 7.8084 0.318835 6.87605 0.260864H0.0291358L0 0.60869C1.66074 1.01449 3.14667 1.5942 4.45778 2.31884L8.24543 15.7681H12.7323L19.4044 0.28985H14.9175Z" fill="#343A3B"/>
</g>
<defs>
<clipPath id="clip0">
<rect width="52.4444" height="16" fill="white"/>
</clipPath>
</defs>
</svg>
