<svg width="487" height="656" viewBox="0 0 487 656" fill="none" xmlns="http://www.w3.org/2000/svg">
<path d="M104.28 277.5C102.44 271.84 104.72 260.88 105.73 255.03C107.39 245.36 117.91 200.86 120.81 188.34C123.25 177.82 124.81 170.88 132.19 169.69C142.03 168.08 163.24 173.29 176.77 176.87C183.29 178.6 197.58 180.87 199.38 187.71C201.38 195.22 195.27 222.96 192.48 233.21C188.48 247.75 185.54 262.02 181.59 276.53C179.59 283.94 178.88 291.12 170.12 292.13L104.28 277.5Z" fill="#1089FF" stroke="#1089FF" stroke-width="4" stroke-linecap="round" stroke-linejoin="round"/>
<path d="M257.81 115L258.19 118.12C250.67 116.26 240.96 117.32 242.06 127.29C242.99 135.75 252.23 135.58 258.9 133.5C259.15 142.17 259.17 150.84 259.11 159.5" stroke="#1089FF" stroke-width="4" stroke-linecap="round" stroke-linejoin="round"/>
<path d="M308.299 102.92C307.869 90.46 307.38 77.29 305.02 65.57" stroke="#1089FF" stroke-width="4" stroke-linecap="round" stroke-linejoin="round"/>
<path d="M309.62 162C309.62 162 309.53 154.72 309.39 145.68" stroke="#1089FF" stroke-width="4" stroke-linecap="round" stroke-linejoin="round"/>
<path d="M277.06 94.78V91.06" stroke="#1089FF" stroke-width="4" stroke-linecap="round" stroke-linejoin="round"/>
<path d="M252.1 111.29C250.65 108.15 249.5 98.09 248.82 92.93C247.97 86.61 248.14 79.84 247.82 73.5C247.5 67.16 245.73 50.92 255.82 55.5C255.99 45.32 279.28 46.99 285.27 46.59C290.92 46.21 297.58 45.17 303.21 46.21C306.48 46.81 313.41 50.21 307.5 53.35C311.29 55.03 311.5 59.52 309.39 62.56C305.44 68.38 295.12 65.66 290.78 63.01C294.52 69.36 288.4 74.27 282.23 74.01C277.13 73.8 272.86 70.88 268.74 68.33C268.74 70.9 268.74 73.6 267.36 75.88C266.26 77.65 264.09 78.42 263.44 80.08C261.58 84.9 263.02 93.64 262.5 98.92C262.07 103.28 262.21 105.86 259.66 109.53C258 111.82 253.56 114.44 252.1 111.29Z" stroke="#1089FF" stroke-width="4" stroke-linecap="round" stroke-linejoin="round"/>
<path d="M311.07 161.86C307.7 162.12 287.69 171.77 287.69 171.77C287.69 171.77 260.28 163.88 258.17 159.49C259.03 165.22 264.55 172.77 267.63 177.85C270.383 182.651 273.495 187.238 276.94 191.57C278.36 187.33 282 182.71 284.22 178.87C285.89 175.97 287.71 172.05 287.71 172.05C287.71 172.05 300.65 185.76 302.92 187.31C305.289 182.244 307.398 177.061 309.24 171.78C310.393 168.597 311.011 165.245 311.07 161.86V161.86Z" stroke="#1089FF" stroke-width="4" stroke-linecap="round" stroke-linejoin="round"/>
<path d="M260.06 194C265.9 203.54 283.15 204.37 292.41 203.41C301.9 202.41 307.33 197.54 313.41 191.17" stroke="#1089FF" stroke-width="4" stroke-linecap="round" stroke-linejoin="round"/>
<path d="M288.87 179.33C289.77 186.76 289.96 203.44 289.96 203.44" stroke="#1089FF" stroke-width="4" stroke-linecap="round" stroke-linejoin="round"/>
<path d="M296.43 194.45C296.4 193.94 296.253 193.444 296 193" stroke="#1089FF" stroke-width="4" stroke-linecap="round" stroke-linejoin="round"/>
<path d="M364.44 217.59C366.36 222.11 366.85 226.98 367.96 231.67C370.5 242.3 370.77 253.67 372.39 264.44C380.16 316 383 368.19 387.79 420.05C388.37 426.32 389.35 442.52 389.79 449.39C389.85 450.338 389.614 451.282 389.114 452.09C388.614 452.898 387.875 453.531 387 453.9C384.526 454.945 381.975 455.798 379.37 456.45C372.182 458.171 364.869 459.321 357.5 459.89C348.13 460.8 339.08 461.67 328.5 461.89C325.7 413.02 323.97 364.24 320.5 315.37C316.86 264.42 313.5 213.37 313.5 162.31C322.24 162.31 325.31 164.06 329.69 174.9C332.92 182.9 335.08 192.74 339.41 199.96C337.96 202.43 326.26 207.88 324.87 209.43C335.01 208.23 339.27 211.94 338.97 218.7C338.58 227.7 336.68 238.35 335.78 247.28C334.56 259.28 332.66 272.09 330.67 284.01C327.88 300.76 321.91 337.15 321.91 337.15" stroke="#1089FF" stroke-width="4" stroke-linecap="round" stroke-linejoin="round"/>
<path d="M325.24 166.61C332.225 166.999 339.13 168.296 345.78 170.47C352.05 172.39 356.86 176.08 359.85 183.57C369.54 207.78 379.99 221.39 385.12 247.35C385.53 249.45 389.04 255.55 384.22 262.84C381.38 267.12 379.95 261.06 379.88 258.67C379.76 254.53 381.35 249.54 385.34 247.5C390.34 244.95 393.51 254.96 395.23 258.68C392.91 254.46 388.37 248.01 388.14 243.04C387.64 232.04 392 222.5 394.19 212.04C397.63 195.59 401.52 181.6 405.11 165.24C405.11 165.24 426.02 173.79 429.62 175.61C435.88 178.76 457.62 190.14 459.62 191.61C446.78 230.5 434.56 268.51 416.31 305.27C412.83 312.27 401.14 324.2 392.77 326.8C390.152 327.442 387.465 327.751 384.77 327.72C382.98 327.63 379.77 327.11 380.98 326.26" stroke="#1089FF" stroke-width="4" stroke-linecap="round" stroke-linejoin="round"/>
<path d="M338.71 232.45C342.1 232.17 358.25 233.1 358.25 233.1C358.25 233.1 360.83 251.67 361.13 256.58C361.42 261.21 362.64 266.07 362.48 270.64C353.12 269.94 343.01 270.15 333.81 270.17" stroke="#1089FF" stroke-width="4" stroke-linecap="round" stroke-linejoin="round"/>
<path d="M339.41 221.12C344.23 220.75 349.11 221.62 354.05 221.59" stroke="#1089FF" stroke-width="4" stroke-linecap="round" stroke-linejoin="round"/>
<path d="M345.44 231.51C345.44 228.91 344.91 220.81 344.44 219.51" stroke="#1089FF" stroke-width="4" stroke-linecap="round" stroke-linejoin="round"/>
<path d="M339.05 269.05C340.05 264.81 342.05 259.54 346.24 259.53C352 259.53 356.02 268.91 356.1 269.68" stroke="#1089FF" stroke-width="4" stroke-linecap="round" stroke-linejoin="round"/>
<path d="M344.71 258.31C339.05 256.2 338.01 248.82 344.48 246.72C351.33 244.49 353.48 257.34 346.13 257.72" stroke="#1089FF" stroke-width="4" stroke-linecap="round" stroke-linejoin="round"/>
<path d="M346 340.39C357.41 342.8 369 349.39 378.59 355.98" stroke="#1089FF" stroke-width="4" stroke-linecap="round" stroke-linejoin="round"/>
<path d="M350.74 350.37C357.414 353.389 363.884 356.84 370.11 360.7" stroke="#1089FF" stroke-width="4" stroke-linecap="round" stroke-linejoin="round"/>
<path d="M249.71 340C249.71 340 236.71 347.62 230.95 351.3C226.95 353.88 222.23 356.3 218.67 359.51" stroke="#1089FF" stroke-width="4" stroke-linecap="round" stroke-linejoin="round"/>
<path d="M248.25 352.2C248.25 352.2 236.11 358.01 231.25 361.65" stroke="#1089FF" stroke-width="4" stroke-linecap="round" stroke-linejoin="round"/>
<path d="M224.59 219.44C224.34 224.89 223.49 230.54 222.76 235.97C219.1 263.44 215.76 290.47 213.23 318.1C211.11 341.1 210.64 364.36 208.97 387.48C207.89 402.3 206.76 417.18 207.52 432.03C207.94 440.03 206.95 449.3 208.57 457.03C213.66 461.03 222.38 463.03 228.95 463.67C243.179 465.142 257.496 465.587 271.79 465C271.36 458.84 272.27 451.12 272.79 444.81C273.95 430.96 273.7 417.17 274.27 403.2C274.75 391.2 272.56 379.6 272.35 367.62C272.11 354 271.18 340 270 326.29C268.64 310.98 267.46 295.66 267.22 280.29C267.07 270.88 264.57 237.96 263.87 230.67C262.64 217.95 257.57 171.67 256.26 161.82C256.26 161.82 252.92 161.93 249.77 162.08C248.532 162.143 247.339 162.566 246.338 163.296C245.336 164.025 244.569 165.031 244.13 166.19C241.21 173.86 236.89 180.44 236.13 188.82C235.53 195.22 244.35 201.59 248.34 206.58C244.34 203.31 237.34 198.92 236.05 207.3C234.76 215.68 242.49 236.5 245.63 246.09C252.32 266.54 268.77 326.09 270.04 331.47" stroke="#1089FF" stroke-width="4" stroke-linecap="round" stroke-linejoin="round"/>
<path d="M243.85 166.22C229.85 169.12 217.46 177.69 211.27 186.11" stroke="#1089FF" stroke-width="4" stroke-linecap="round" stroke-linejoin="round"/>
<path d="M212.66 324.81C210.51 328.9 202.01 331.7 197.72 331.44C192.49 331.12 185.04 327.44 182.67 320.94" stroke="#1089FF" stroke-width="4" stroke-linecap="round" stroke-linejoin="round"/>
<path d="M408.79 165.11C408.79 165.11 411.31 152.86 413.42 147.28C421.55 147.74 433.71 152.46 440.97 155.95C446.78 158.74 454.97 163.32 460.56 166.22C458.95 171.08 453.78 188.28 453.78 188.28" stroke="#1089FF" stroke-width="4" stroke-linecap="round" stroke-linejoin="round"/>
<path d="M417.41 147.21C419.414 136.185 420.664 125.036 421.15 113.84C421.52 100.32 418.94 86.44 418.23 72.92C417.96 67.8 416.99 61.45 421.9 58.82C426.81 56.19 431.05 58.28 433.53 62.82C435.9 67.14 443.23 87.08 443.23 87.08" stroke="#1089FF" stroke-width="4" stroke-linecap="round" stroke-linejoin="round"/>
<path d="M446.51 124.35C442.68 124.35 435.41 117.83 442.12 112.52C434 111.2 434.67 99.88 441.12 99.84C438.72 98.28 438.63 93 441.12 89.75C446.24 83.07 471.4 77.18 476.77 84.97C477.83 86.64 479.2 90.26 478.42 92.38C484.04 94.6 484.04 99.2 481.68 103.17C488.01 106.6 484.15 115.28 479.11 117.17C481.68 119.52 478.54 126.17 473.46 128.57C464.13 133 447.66 133.66 446.51 124.35Z" stroke="#1089FF" stroke-width="4" stroke-linecap="round" stroke-linejoin="round"/>
<path d="M465.71 131C465.71 131 460.349 154.2 456.979 163.17" stroke="#1089FF" stroke-width="4" stroke-linecap="round" stroke-linejoin="round"/>
<path d="M441.11 99.84C445.11 100.16 458.03 98.53 461.95 97.63C466.49 96.63 474.95 95.13 478.41 92.38" stroke="#1089FF" stroke-width="4" stroke-linecap="round" stroke-linejoin="round"/>
<path d="M442.12 112.52C450.36 113.14 459.85 111.01 467.78 108.96C472.602 107.528 477.258 105.587 481.67 103.17" stroke="#1089FF" stroke-width="4" stroke-linecap="round" stroke-linejoin="round"/>
<path d="M437.18 139.66C437.94 140.15 438.78 140.66 439.54 141.07" stroke="#1089FF" stroke-width="4" stroke-linecap="round" stroke-linejoin="round"/>
<path d="M448.46 207.2L450.82 207.67" stroke="#1089FF" stroke-width="4" stroke-linecap="round" stroke-linejoin="round"/>
<path d="M446.17 217.35L448.02 217.72" stroke="#1089FF" stroke-width="4" stroke-linecap="round" stroke-linejoin="round"/>
<path d="M442.79 227.04L444.68 227.51" stroke="#1089FF" stroke-width="4" stroke-linecap="round" stroke-linejoin="round"/>
<path d="M270 305.89C274.54 307.74 276 306.89 281.36 306.98C286.86 307.09 292.97 305.48 298.31 305.93C301.7 306.22 304.75 307.69 308.47 307.82C312.73 307.97 315.31 305.62 319.09 304.93" stroke="#1089FF" stroke-width="4" stroke-linecap="round" stroke-linejoin="round"/>
<path d="M299.26 349.37C299.8 358.15 299.88 368.44 300.26 377.18C300.86 389.37 300.63 401.76 300.11 413.97C299.03 439.59 300.11 465.71 300.11 491.46C300.11 509.6 299.32 527.74 298.97 545.88C298.65 563.25 292.97 625.57 292.97 625.57C286.71 626.34 261.32 627.12 254.36 627.12C246.01 627.12 231.7 626.12 224.36 626.12C224.36 626.12 225.96 590.29 225.94 578.49C225.94 555.31 227.85 539.78 227.85 516.63V477.71C227.85 473.38 228.32 465.19 228.32 465.19" stroke="#1089FF" stroke-width="4" stroke-linecap="round" stroke-linejoin="round"/>
<path d="M374.36 458C376.56 464.89 375.89 474.9 374.82 482C373.37 491.7 365.82 496.82 358.82 503.3C343.867 517.041 327.905 529.643 311.07 541C308.83 542.54 298.93 549.87 298.93 549.87" stroke="#1089FF" stroke-width="4" stroke-linecap="round" stroke-linejoin="round"/>
<path d="M363.19 482.93C361.08 485.66 360.1 488.93 358.47 491.93" stroke="#1089FF" stroke-width="4" stroke-linecap="round" stroke-linejoin="round"/>
<path d="M227 523.66L202.1 544.2C202.1 544.2 207.1 560.36 208.45 566.08C211.69 579.22 217.3 588.69 220.34 601.9L225.46 599.17" stroke="#1089FF" stroke-width="4" stroke-linecap="round" stroke-linejoin="round"/>
<path d="M203.38 548.69C196.8 554.46 187.38 559.1 180.02 564.24C177.62 565.91 170.79 570.83 170.79 570.83" stroke="#1089FF" stroke-width="4" stroke-linecap="round" stroke-linejoin="round"/>
<path d="M217.51 598.23C214.11 600.23 182.72 619.43 182.72 619.43" stroke="#1089FF" stroke-width="4" stroke-linecap="round" stroke-linejoin="round"/>
<path d="M167.48 569L156.73 573.2C156.73 573.2 167.6 625.2 169.48 631.67C171.43 638.4 172.13 649.81 179.48 651.97C181.38 652.53 200.89 651.92 200.93 650.64C201.07 647.06 202.93 643.09 199.35 641.25C196.05 639.55 190.44 641.25 186.89 640.67C186.89 640.67 181.57 616.1 177.89 604.87C174.21 593.64 172.6 581.37 168.89 570.03C169.4 569.72 169.82 569.67 167.48 569Z" fill="#1089FF" stroke="#1089FF" stroke-width="4" stroke-linecap="round" stroke-linejoin="round"/>
<path d="M184.48 622.43C189.24 621.01 197.33 616.63 201.98 618.57C205.93 620.22 202.65 623.7 199.72 625.57C195.86 628.1 190.3 628.57 185.83 628.57C189.95 628.03 200.18 626.79 201.54 632.78C203.54 641.62 188.13 630.58 185.83 628.57" stroke="#1089FF" stroke-width="4" stroke-linecap="round" stroke-linejoin="round"/>
<path d="M307.4 652.94C307.48 651.021 307.41 649.098 307.19 647.19C304.39 642.41 296.91 645.04 292.53 645.32C280.353 646.01 268.147 646.01 255.97 645.32C245.97 644.84 236.69 643.53 226.59 644.18C226.09 654.81 229.37 652.95 237.27 652.94H307.4Z" fill="#1089FF" stroke="#1089FF" stroke-width="4" stroke-linecap="round" stroke-linejoin="round"/>
<path d="M228.41 641.63C227.92 640.28 228.76 628.83 228.94 627.38" stroke="#1089FF" stroke-width="4" stroke-linecap="round" stroke-linejoin="round"/>
<path d="M284.15 643.52C284.15 641.63 285.15 629.74 285.15 627.85" stroke="#1089FF" stroke-width="4" stroke-linecap="round" stroke-linejoin="round"/>
<path d="M287 644.23C290.92 637.72 294.19 623.61 303.15 622.87C306.15 628.4 301.08 635.72 295.96 638.05C298.54 634.31 306.68 630.6 310.96 631.58C313.12 640.18 293.44 645.1 287 644.23Z" stroke="#1089FF" stroke-width="4" stroke-linecap="round" stroke-linejoin="round"/>
<path d="M113.35 173.84C108.95 175.26 100.58 179.65 95.7197 184.91C88.8097 192.37 84.5097 201.73 81.3297 211.23C75.3797 228.98 75.5297 244.8 81.6097 262.52C82.6097 265.45 86.5397 275.31 90.6097 273.13" stroke="#1089FF" stroke-width="4" stroke-linecap="round" stroke-linejoin="round"/>
<path d="M84.1299 237.08C84.6399 242.41 87.1299 259.68 91.7699 261.7" stroke="#1089FF" stroke-width="4" stroke-linecap="round" stroke-linejoin="round"/>
<path d="M89.1699 218.79C89.5199 224.63 89.7999 244.52 95.1699 247.3" stroke="#1089FF" stroke-width="4" stroke-linecap="round" stroke-linejoin="round"/>
<path d="M106.38 203.29C102.96 206.46 103.25 211.12 104.52 215.62" stroke="#1089FF" stroke-width="4" stroke-linecap="round" stroke-linejoin="round"/>
<path d="M35.3799 529.44L114.66 172.9C115.622 168.558 118.137 164.716 121.731 162.096C125.325 159.476 129.751 158.258 134.18 158.67C145.322 159.8 156.398 161.516 167.36 163.81C178.121 166.346 188.74 169.453 199.17 173.12C203.355 174.625 206.847 177.604 208.994 181.499C211.14 185.394 211.793 189.938 210.83 194.28L131.36 551.69" stroke="#1089FF" stroke-width="4" stroke-linecap="round" stroke-linejoin="round"/>
<path d="M144.92 159.08C147.18 153.33 149.1 146.28 149.1 146.28L191.2 155.84C191.2 155.84 190.81 163.92 188.07 169.12" stroke="#1089FF" stroke-width="4" stroke-linecap="round" stroke-linejoin="round"/>
<path d="M155.43 145.28C156.94 138.53 160.49 124.66 160.49 124.66C169.83 126.44 180.33 128.19 189.63 130.79C188.24 139.08 186.38 145.33 184.52 153.36" stroke="#1089FF" stroke-width="4" stroke-linecap="round" stroke-linejoin="round"/>
<path d="M175.66 126.02L195.76 35.64" stroke="#1089FF" stroke-width="4" stroke-linecap="round" stroke-linejoin="round"/>
<path d="M90.9698 563.42L75.9897 630.82" stroke="#1089FF" stroke-width="4" stroke-linecap="round" stroke-linejoin="round"/>
<path d="M67.46 536.57L121.13 294.16L149.44 300.45L95.5 543.05" stroke="#1089FF" stroke-width="4" stroke-linecap="round" stroke-linejoin="round"/>
<path d="M48.1797 623.65L62.9497 556.96" stroke="#1089FF" stroke-width="4" stroke-linecap="round" stroke-linejoin="round"/>
<path d="M13.9998 544.22C17.4698 546.75 22.1198 547.32 26.8598 548.41C46.9698 553.05 66.9999 558.05 87.1399 562.55C100.95 565.64 114.34 568.88 128.2 571.55C139.14 573.69 150.69 575.3 151.59 565.37C152.47 555.62 134.84 552.54 125.33 550.21C105.64 545.41 85.6198 540.56 65.8098 536.21C55.7365 533.97 45.6665 531.73 35.5998 529.49C30.2898 528.29 21.3298 525.86 15.9998 526.74C9.42984 527.82 7.71983 533.63 9.86983 538.83C10.7063 540.983 12.1389 542.852 13.9998 544.22Z" stroke="#1089FF" stroke-width="4" stroke-linecap="round" stroke-linejoin="round"/>
<path d="M6.99975 628.15C9.93975 629.99 13.7797 630.53 17.7097 631.43C34.3897 635.25 51.0197 639.32 67.7097 643.05C79.1597 645.6 90.4898 648.18 101.79 651.24C110.7 653.65 122.56 655.9 123.18 645.83C123.79 635.95 106.67 637.4 98.6998 635.89C82.1898 632.78 65.6998 628.01 49.3198 624.36C40.9664 622.5 32.6164 620.643 24.2697 618.79C19.8597 617.79 11.5597 615.13 7.20974 615.56C1.83974 616.08 1.48976 620.71 3.41976 624.33C4.2499 625.901 5.48619 627.22 6.99975 628.15V628.15Z" stroke="#1089FF" stroke-width="4" stroke-linecap="round" stroke-linejoin="round"/>
<path d="M98.575 279.916L97.5285 284.621C97.098 286.557 98.318 288.475 100.253 288.905L174.04 305.317C175.976 305.748 177.893 304.528 178.324 302.593L179.37 297.888C179.801 295.952 178.581 294.034 176.646 293.604L102.859 277.192C100.923 276.761 99.0055 277.981 98.575 279.916Z" stroke="#1089FF" stroke-width="4" stroke-linecap="round" stroke-linejoin="round"/>
<path d="M77.7396 560.42C74.8796 569.96 61.1396 627.13 61.1396 627.13" stroke="#1089FF" stroke-width="4" stroke-linecap="round" stroke-linejoin="round"/>
<path d="M135.62 299.63C124.48 344.83 114.34 396.63 104.26 441.94C99.8697 461.68 89.2597 511.25 82.6597 540.04" stroke="#1089FF" stroke-width="4" stroke-linecap="round" stroke-linejoin="round"/>
<path d="M119.47 249.17L120.79 254.45" stroke="white" stroke-width="4" stroke-linecap="round" stroke-linejoin="round"/>
<path d="M145.79 226.19L149.49 224.52" stroke="white" stroke-width="4" stroke-linecap="round" stroke-linejoin="round"/>
<path d="M132.76 208.25L132.23 210.62" stroke="white" stroke-width="4" stroke-linecap="round" stroke-linejoin="round"/>
<path d="M131.97 184.75L133.02 187.48" stroke="white" stroke-width="4" stroke-linecap="round" stroke-linejoin="round"/>
<path d="M166.07 199.41L167.21 198" stroke="white" stroke-width="4" stroke-linecap="round" stroke-linejoin="round"/>
<path d="M179.76 183.79L181.7 182.55" stroke="white" stroke-width="4" stroke-linecap="round" stroke-linejoin="round"/>
<path d="M183.72 195.62L186.36 198.7" stroke="white" stroke-width="4" stroke-linecap="round" stroke-linejoin="round"/>
<path d="M166.11 215.66L167.17 218.39" stroke="white" stroke-width="4" stroke-linecap="round" stroke-linejoin="round"/>
<path d="M162.94 246.07L166.64 244.4" stroke="white" stroke-width="4" stroke-linecap="round" stroke-linejoin="round"/>
<path d="M185.04 225.35L188.38 225.26" stroke="white" stroke-width="4" stroke-linecap="round" stroke-linejoin="round"/>
<path d="M178.98 235.32L179.86 238.84" stroke="white" stroke-width="4" stroke-linecap="round" stroke-linejoin="round"/>
<path d="M171.39 277.52L172.62 279.45" stroke="white" stroke-width="4" stroke-linecap="round" stroke-linejoin="round"/>
<path d="M174.82 265.81L178.34 264.93" stroke="white" stroke-width="4" stroke-linecap="round" stroke-linejoin="round"/>
<path d="M155.73 262.71L157.84 260.68" stroke="white" stroke-width="4" stroke-linecap="round" stroke-linejoin="round"/>
<path d="M154.95 279.53L152.52 279.44" stroke="white" stroke-width="4" stroke-linecap="round" stroke-linejoin="round"/>
<path d="M138.03 251.81L140.67 254.89" stroke="white" stroke-width="4" stroke-linecap="round" stroke-linejoin="round"/>
<path d="M146.53 238.54L148.74 239.14" stroke="white" stroke-width="4" stroke-linecap="round" stroke-linejoin="round"/>
<path d="M148.25 209.22L147.02 207.28" stroke="white" stroke-width="4" stroke-linecap="round" stroke-linejoin="round"/>
<path d="M121.4 233.15L118.85 233.42" stroke="white" stroke-width="4" stroke-linecap="round" stroke-linejoin="round"/>
<path d="M118.39 222.06L118.3 218.72" stroke="white" stroke-width="4" stroke-linecap="round" stroke-linejoin="round"/>
<path d="M108.55 265.81L112.07 264.93" stroke="white" stroke-width="4" stroke-linecap="round" stroke-linejoin="round"/>
<path d="M132.19 272.76L133.86 268.97" stroke="white" stroke-width="4" stroke-linecap="round" stroke-linejoin="round"/>
<path d="M154.26 190.14L153.2 187.41" stroke="white" stroke-width="4" stroke-linecap="round" stroke-linejoin="round"/>
<path d="M144.91 176.04L147.64 174.98" stroke="white" stroke-width="4" stroke-linecap="round" stroke-linejoin="round"/>
<path d="M191.35 12.57C191.24 10.96 187.59 5.81001 186.35 4.85001" stroke="#1089FF" stroke-width="4" stroke-linecap="round" stroke-linejoin="round"/>
<path d="M206.67 11.15C207.6 7.79001 210.56 4.86001 212.96 2.35001" stroke="#1089FF" stroke-width="4" stroke-linecap="round" stroke-linejoin="round"/>
<path d="M219.56 22.75C222.702 20.9632 226.355 20.2868 229.93 20.83" stroke="#1089FF" stroke-width="4" stroke-linecap="round" stroke-linejoin="round"/>
<path d="M313.22 107.28C309.93 100.23 299.97 102.17 292.68 102.34C284.085 102.605 275.601 104.351 267.6 107.5V107.5C270.76 112.18 270.6 123.3 270.33 129.12C270.238 133.122 269.732 137.103 268.82 141L268.52 141.88C275.94 144.7 283.16 147.17 291.15 147.5C296.26 147.71 303.53 148.15 308.4 146.16C311.98 144.69 314.4 142.3 315.08 138.48C316.85 129.21 317.31 116.05 313.22 107.28Z" fill="#1089FF" stroke="#1089FF" stroke-width="4" stroke-linecap="round" stroke-linejoin="round"/>
<path d="M271.29 117.21C274.229 116.517 277.208 116.006 280.21 115.68" stroke="white" stroke-width="4" stroke-linecap="round" stroke-linejoin="round"/>
<path d="M270.36 132C271.78 132.37 277.95 134.42 279.14 135" stroke="#F9F9F9" stroke-width="4" stroke-linecap="round" stroke-linejoin="round"/>
<path d="M268.52 141.88C266.01 141.08 256.11 137.24 256.11 137.24" stroke="#1089FF" stroke-width="4" stroke-linecap="round" stroke-linejoin="round"/>
<path d="M255.81 114.09C255.81 114.09 262.39 109.51 267.6 107.49" stroke="#1089FF" stroke-width="4" stroke-linecap="round" stroke-linejoin="round"/>
<path d="M299.729 93.37V89.64" stroke="#1089FF" stroke-width="4" stroke-linecap="round" stroke-linejoin="round"/>
<path d="M338.11 239.86C340.4 239.86 349.75 240.33 352 240.11" stroke="#1089FF" stroke-width="4" stroke-linecap="round" stroke-linejoin="round"/>
<path d="M446.51 124.35C450.51 124.66 460.15 123.05 464.07 122.16C468.61 121.16 475.45 119.61 479.07 117.16" stroke="#1089FF" stroke-width="4" stroke-linecap="round" stroke-linejoin="round"/>
</svg>
